<mxfile host="app.diagrams.net" agent="Mozilla/5.0 (Windows NT 10.0; Win64; x64) AppleWebKit/537.36 (KHTML, like Gecko) Chrome/132.0.0.0 Safari/537.36" version="26.0.6">
  <diagram name="Page-1" id="vi1RHGYWAPETEB9QKC6U">
    <mxGraphModel dx="2304" dy="1818" grid="1" gridSize="10" guides="1" tooltips="1" connect="1" arrows="1" fold="1" page="1" pageScale="1" pageWidth="827" pageHeight="1169" math="0" shadow="0">
      <root>
        <mxCell id="0" />
        <mxCell id="1" parent="0" />
        <mxCell id="vHuXmMWagbqj6InK_sGG-2" value="" style="whiteSpace=wrap;html=1;aspect=fixed;" vertex="1" parent="1">
          <mxGeometry x="-300" y="530" width="1980" height="1980" as="geometry" />
        </mxCell>
        <mxCell id="vHuXmMWagbqj6InK_sGG-4" value="&lt;font style=&quot;font-size: 36px;&quot;&gt;cabinet medical&lt;/font&gt;" style="text;html=1;align=center;verticalAlign=middle;whiteSpace=wrap;rounded=0;" vertex="1" parent="1">
          <mxGeometry x="530" y="530" width="305" height="80" as="geometry" />
        </mxCell>
        <mxCell id="vHuXmMWagbqj6InK_sGG-6" value="patinet" style="shape=umlActor;verticalLabelPosition=bottom;verticalAlign=top;html=1;outlineConnect=0;" vertex="1" parent="1">
          <mxGeometry x="-260" y="980" width="110" height="140" as="geometry" />
        </mxCell>
        <mxCell id="vHuXmMWagbqj6InK_sGG-7" value="" style="ellipse;whiteSpace=wrap;html=1;" vertex="1" parent="1">
          <mxGeometry x="30" y="690" width="162.5" height="100" as="geometry" />
        </mxCell>
        <mxCell id="vHuXmMWagbqj6InK_sGG-8" value="" style="ellipse;whiteSpace=wrap;html=1;" vertex="1" parent="1">
          <mxGeometry x="35" y="1000" width="162.5" height="100" as="geometry" />
        </mxCell>
        <mxCell id="vHuXmMWagbqj6InK_sGG-9" value="" style="ellipse;whiteSpace=wrap;html=1;" vertex="1" parent="1">
          <mxGeometry x="30" y="840" width="162.5" height="100" as="geometry" />
        </mxCell>
        <mxCell id="vHuXmMWagbqj6InK_sGG-10" value="&lt;font style=&quot;font-size: 18px;&quot;&gt;prendre rendez vous&lt;/font&gt;" style="text;html=1;align=center;verticalAlign=middle;whiteSpace=wrap;rounded=0;" vertex="1" parent="1">
          <mxGeometry x="51.25" y="725" width="120" height="30" as="geometry" />
        </mxCell>
        <mxCell id="vHuXmMWagbqj6InK_sGG-11" value="&lt;span style=&quot;font-size: 18px;&quot;&gt;Consulter historique des consultations&lt;/span&gt;" style="text;html=1;align=center;verticalAlign=middle;whiteSpace=wrap;rounded=0;" vertex="1" parent="1">
          <mxGeometry x="51.25" y="875" width="120" height="30" as="geometry" />
        </mxCell>
        <UserObject label="" plantUmlData="{&#xa;  &quot;data&quot;: &quot;@startuml\n\nactor Patient\nactor Medecin\nactor Administrateur\n\nrectangle \&quot;Cabinet Médical MVC\&quot; {\n    usecase \&quot;Inscription\&quot; as UC1\n    usecase \&quot;Connexion\&quot; as UC2\n    usecase \&quot;Prendre rendez-vous\&quot; as UC3\n    usecase \&quot;Consulter historique des consultations\&quot; as UC4\n    usecase \&quot;Modifier profil\&quot; as UC5\n    usecase \&quot;Annuler rendez-vous\&quot; as UC6\n    usecase \&quot;Gérer utilisateurs\&quot; as UC7\n    usecase \&quot;Gérer rendez-vous\&quot; as UC8\n    usecase \&quot;Confirmer rendez-vous\&quot; as UC9\n    usecase \&quot;Consulter tableau de bord\&quot; as UC10\n    usecase \&quot;Générer rapports\&quot; as UC11\n}\n\nPatient --&gt; UC1\nPatient --&gt; UC2\nPatient --&gt; UC3\nPatient --&gt; UC4\nPatient --&gt; UC5\nPatient --&gt; UC6\n\nMedecin --&gt; UC2\nMedecin --&gt; UC4\nMedecin --&gt; UC8\nMedecin --&gt; UC9\n\nAdministrateur --&gt; UC2\nAdministrateur --&gt; UC7\nAdministrateur --&gt; UC8\nAdministrateur --&gt; UC9\nAdministrateur --&gt; UC10\nAdministrateur --&gt; UC11\n\n@enduml\n&quot;,&#xa;  &quot;format&quot;: &quot;svg&quot;&#xa;}" id="vHuXmMWagbqj6InK_sGG-12">
          <mxCell style="shape=image;noLabel=1;verticalAlign=top;aspect=fixed;imageAspect=0;image=data:image/svg+xml,PD94bWwgdmVyc2lvbj0iMS4wIiBlbmNvZGluZz0idXMtYXNjaWkiIHN0YW5kYWxvbmU9Im5vIj8+PHN2ZyB4bWxucz0iaHR0cDovL3d3dy53My5vcmcvMjAwMC9zdmciIHhtbG5zOnhsaW5rPSJodHRwOi8vd3d3LnczLm9yZy8xOTk5L3hsaW5rIiBjb250ZW50U3R5bGVUeXBlPSJ0ZXh0L2NzcyIgaGVpZ2h0PSIyMjZweCIgcHJlc2VydmVBc3BlY3RSYXRpbz0ibm9uZSIgc3R5bGU9IndpZHRoOjIyNjhweDtoZWlnaHQ6MjI2cHg7YmFja2dyb3VuZDojRkZGRkZGOyIgdmVyc2lvbj0iMS4xIiB2aWV3Qm94PSIwIDAgMjI2OCAyMjYiIHdpZHRoPSIyMjY4cHgiIHpvb21BbmRQYW49Im1hZ25pZnkiPjxkZWZzLz48Zz48IS0tY2x1c3RlciBDYWJpbmV0IE0/ZGljYWwgTVZDLS0+PGcgaWQ9ImNsdXN0ZXJfQ2FiaW5ldCBNJiMyMzM7ZGljYWwgTVZDIj48cmVjdCBmaWxsPSJub25lIiBoZWlnaHQ9IjExMyIgcng9IjIuNSIgcnk9IjIuNSIgc3R5bGU9InN0cm9rZTojMTgxODE4O3N0cm9rZS13aWR0aDoxLjA7IiB3aWR0aD0iMjI1NSIgeD0iNyIgeT0iMTA3LjUiLz48dGV4dCBmaWxsPSIjMDAwMDAwIiBmb250LWZhbWlseT0ic2Fucy1zZXJpZiIgZm9udC1zaXplPSIxNCIgZm9udC13ZWlnaHQ9ImJvbGQiIGxlbmd0aEFkanVzdD0ic3BhY2luZyIgdGV4dExlbmd0aD0iMTMzIiB4PSIxMDY4IiB5PSIxMjIuNzM0NCI+Q2FiaW5ldCBNJiMyMzM7ZGljYWwgTVZDPC90ZXh0PjwvZz48ZyBpZD0iZWxlbV9VQzEiPjxlbGxpcHNlIGN4PSI2NzIuMTY4NSIgY3k9IjE3Mi42MzM3IiBmaWxsPSIjRjFGMUYxIiByeD0iNjEuMTY4NSIgcnk9IjE0LjYzMzciIHN0eWxlPSJzdHJva2U6IzE4MTgxODtzdHJva2Utd2lkdGg6MC41OyIvPjx0ZXh0IGZpbGw9IiMwMDAwMDAiIGZvbnQtZmFtaWx5PSJzYW5zLXNlcmlmIiBmb250LXNpemU9IjE0IiBsZW5ndGhBZGp1c3Q9InNwYWNpbmciIHRleHRMZW5ndGg9Ijc3IiB4PSI2MzMuNjY4NSIgeT0iMTc2LjM3NTkiPkluc2NyaXB0aW9uPC90ZXh0PjwvZz48ZyBpZD0iZWxlbV9VQzIiPjxlbGxpcHNlIGN4PSIxMTUzLjAwNTQiIGN5PSIxNzIuNjAxMSIgZmlsbD0iI0YxRjFGMSIgcng9IjU2LjAwNTQiIHJ5PSIxMy42MDExIiBzdHlsZT0ic3Ryb2tlOiMxODE4MTg7c3Ryb2tlLXdpZHRoOjAuNTsiLz48dGV4dCBmaWxsPSIjMDAwMDAwIiBmb250LWZhbWlseT0ic2Fucy1zZXJpZiIgZm9udC1zaXplPSIxNCIgbGVuZ3RoQWRqdXN0PSJzcGFjaW5nIiB0ZXh0TGVuZ3RoPSI2MyIgeD0iMTEyMS41MDU0IiB5PSIxNzYuMzQzMyI+Q29ubmV4aW9uPC90ZXh0PjwvZz48ZyBpZD0iZWxlbV9VQzMiPjxlbGxpcHNlIGN4PSIzMTEuMTA2MiIgY3k9IjE3Mi4zMjEyIiBmaWxsPSIjRjFGMUYxIiByeD0iODQuNjA2MiIgcnk9IjE5LjMyMTIiIHN0eWxlPSJzdHJva2U6IzE4MTgxODtzdHJva2Utd2lkdGg6MC41OyIvPjx0ZXh0IGZpbGw9IiMwMDAwMDAiIGZvbnQtZmFtaWx5PSJzYW5zLXNlcmlmIiBmb250LXNpemU9IjE0IiBsZW5ndGhBZGp1c3Q9InNwYWNpbmciIHRleHRMZW5ndGg9IjEzMyIgeD0iMjQ0LjYwNjIiIHk9IjE3Ni4wNjM0Ij5QcmVuZHJlIHJlbmRlei12b3VzPC90ZXh0PjwvZz48ZyBpZD0iZWxlbV9VQzQiPjxlbGxpcHNlIGN4PSI5MTQuOTU5NCIgY3k9IjE3Mi4yOTE5IiBmaWxsPSIjRjFGMUYxIiByeD0iMTQ2Ljk1OTQiIHJ5PSIzMS43OTE5IiBzdHlsZT0ic3Ryb2tlOiMxODE4MTg7c3Ryb2tlLXdpZHRoOjAuNTsiLz48dGV4dCBmaWxsPSIjMDAwMDAwIiBmb250LWZhbWlseT0ic2Fucy1zZXJpZiIgZm9udC1zaXplPSIxNCIgbGVuZ3RoQWRqdXN0PSJzcGFjaW5nIiB0ZXh0TGVuZ3RoPSIyNjYiIHg9Ijc4MS45NTk0IiB5PSIxNzYuMDM0MSI+Q29uc3VsdGVyIGhpc3RvcmlxdWUgZGVzIGNvbnN1bHRhdGlvbnM8L3RleHQ+PC9nPjxnIGlkPSJlbGVtX1VDNSI+PGVsbGlwc2UgY3g9IjUwMi45NjYzIiBjeT0iMTcyLjM5MzMiIGZpbGw9IiNGMUYxRjEiIHJ4PSI3Mi40NjYzIiByeT0iMTYuODkzMyIgc3R5bGU9InN0cm9rZTojMTgxODE4O3N0cm9rZS13aWR0aDowLjU7Ii8+PHRleHQgZmlsbD0iIzAwMDAwMCIgZm9udC1mYW1pbHk9InNhbnMtc2VyaWYiIGZvbnQtc2l6ZT0iMTQiIGxlbmd0aEFkanVzdD0ic3BhY2luZyIgdGV4dExlbmd0aD0iMTA1IiB4PSI0NTAuNDY2MyIgeT0iMTc2LjEzNTUiPk1vZGlmaWVyIHByb2ZpbDwvdGV4dD48L2c+PGcgaWQ9ImVsZW1fVUM2Ij48ZWxsaXBzZSBjeD0iMTA3LjEwNjIiIGN5PSIxNzIuMzIxMiIgZmlsbD0iI0YxRjFGMSIgcng9Ijg0LjYwNjIiIHJ5PSIxOS4zMjEyIiBzdHlsZT0ic3Ryb2tlOiMxODE4MTg7c3Ryb2tlLXdpZHRoOjAuNTsiLz48dGV4dCBmaWxsPSIjMDAwMDAwIiBmb250LWZhbWlseT0ic2Fucy1zZXJpZiIgZm9udC1zaXplPSIxNCIgbGVuZ3RoQWRqdXN0PSJzcGFjaW5nIiB0ZXh0TGVuZ3RoPSIxMzMiIHg9IjQwLjYwNjIiIHk9IjE3Ni4wNjM0Ij5Bbm51bGVyIHJlbmRlei12b3VzPC90ZXh0PjwvZz48ZyBpZD0iZWxlbV9VQzciPjxlbGxpcHNlIGN4PSIxOTc4LjAxMzIiIGN5PSIxNzIuNzAyNiIgZmlsbD0iI0YxRjFGMSIgcng9IjgxLjUxMzIiIHJ5PSIxOC43MDI2IiBzdHlsZT0ic3Ryb2tlOiMxODE4MTg7c3Ryb2tlLXdpZHRoOjAuNTsiLz48dGV4dCBmaWxsPSIjMDAwMDAwIiBmb250LWZhbWlseT0ic2Fucy1zZXJpZiIgZm9udC1zaXplPSIxNCIgbGVuZ3RoQWRqdXN0PSJzcGFjaW5nIiB0ZXh0TGVuZ3RoPSIxMjYiIHg9IjE5MTUuMDEzMiIgeT0iMTc2LjQ0NDgiPkcmIzIzMztyZXIgdXRpbGlzYXRldXJzPC90ZXh0PjwvZz48ZyBpZD0iZWxlbV9VQzgiPjxlbGxpcHNlIGN4PSIxMzIyLjk1NTgiIGN5PSIxNzIuNTkxMiIgZmlsbD0iI0YxRjFGMSIgcng9Ijc4LjQ1NTgiIHJ5PSIxOC4wOTEyIiBzdHlsZT0ic3Ryb2tlOiMxODE4MTg7c3Ryb2tlLXdpZHRoOjAuNTsiLz48dGV4dCBmaWxsPSIjMDAwMDAwIiBmb250LWZhbWlseT0ic2Fucy1zZXJpZiIgZm9udC1zaXplPSIxNCIgbGVuZ3RoQWRqdXN0PSJzcGFjaW5nIiB0ZXh0TGVuZ3RoPSIxMTkiIHg9IjEyNjMuNDU1OCIgeT0iMTc2LjMzMzMiPkcmIzIzMztyZXIgcmVuZGV6LXZvdXM8L3RleHQ+PC9nPjxnIGlkPSJlbGVtX1VDOSI+PGVsbGlwc2UgY3g9IjE1MjcuODM2NCIgY3k9IjE3Mi42NjczIiBmaWxsPSIjRjFGMUYxIiByeD0iOTEuMzM2NCIgcnk9IjIwLjY2NzMiIHN0eWxlPSJzdHJva2U6IzE4MTgxODtzdHJva2Utd2lkdGg6MC41OyIvPjx0ZXh0IGZpbGw9IiMwMDAwMDAiIGZvbnQtZmFtaWx5PSJzYW5zLXNlcmlmIiBmb250LXNpemU9IjE0IiBsZW5ndGhBZGp1c3Q9InNwYWNpbmciIHRleHRMZW5ndGg9IjE0OCIgeD0iMTQ1My44MzY0IiB5PSIxNzYuNDA5NSI+Q29uZmlybWVyIHJlbmRlei12b3VzPC90ZXh0PjwvZz48ZyBpZD0iZWxlbV9VQzEwIj48ZWxsaXBzZSBjeD0iMTc1OC4yMjUyIiBjeT0iMTcyLjY0NSIgZmlsbD0iI0YxRjFGMSIgcng9IjEwMy43MjUyIiByeT0iMjMuMTQ1IiBzdHlsZT0ic3Ryb2tlOiMxODE4MTg7c3Ryb2tlLXdpZHRoOjAuNTsiLz48dGV4dCBmaWxsPSIjMDAwMDAwIiBmb250LWZhbWlseT0ic2Fucy1zZXJpZiIgZm9udC1zaXplPSIxNCIgbGVuZ3RoQWRqdXN0PSJzcGFjaW5nIiB0ZXh0TGVuZ3RoPSIxNzUiIHg9IjE2NzAuNzI1MiIgeT0iMTc2LjM4NzIiPkNvbnN1bHRlciB0YWJsZWF1IGRlIGJvcmQ8L3RleHQ+PC9nPjxnIGlkPSJlbGVtX1VDMTEiPjxlbGxpcHNlIGN4PSIyMTY5LjkzODQiIGN5PSIxNzIuNDg3NyIgZmlsbD0iI0YxRjFGMSIgcng9Ijc1LjQzODQiIHJ5PSIxNy40ODc3IiBzdHlsZT0ic3Ryb2tlOiMxODE4MTg7c3Ryb2tlLXdpZHRoOjAuNTsiLz48dGV4dCBmaWxsPSIjMDAwMDAwIiBmb250LWZhbWlseT0ic2Fucy1zZXJpZiIgZm9udC1zaXplPSIxNCIgbGVuZ3RoQWRqdXN0PSJzcGFjaW5nIiB0ZXh0TGVuZ3RoPSIxMTIiIHg9IjIxMTMuOTM4NCIgeT0iMTc2LjIyOTkiPkcmIzIzMztuJiMyMzM7cmVyIHJhcHBvcnRzPC90ZXh0PjwvZz48IS0tZW50aXR5IFBhdGllbnQtLT48ZyBpZD0iZWxlbV9QYXRpZW50Ij48ZWxsaXBzZSBjeD0iNTg4IiBjeT0iMTQiIGZpbGw9IiNGMUYxRjEiIHJ4PSI4IiByeT0iOCIgc3R5bGU9InN0cm9rZTojMTgxODE4O3N0cm9rZS13aWR0aDowLjU7Ii8+PHBhdGggZD0iTTU4OCwyMiBMNTg4LDQ5IE01NzUsMzAgTDYwMSwzMCBNNTg4LDQ5IEw1NzUsNjQgTTU4OCw0OSBMNjAxLDY0ICIgZmlsbD0ibm9uZSIgc3R5bGU9InN0cm9rZTojMTgxODE4O3N0cm9rZS13aWR0aDowLjU7Ii8+PHRleHQgZmlsbD0iIzAwMDAwMCIgZm9udC1mYW1pbHk9InNhbnMtc2VyaWYiIGZvbnQtc2l6ZT0iMTQiIGxlbmd0aEFkanVzdD0ic3BhY2luZyIgdGV4dExlbmd0aD0iNDkiIHg9IjU2My41IiB5PSI3OC43MzQ0Ij5QYXRpZW50PC90ZXh0PjwvZz48IS0tZW50aXR5IE1lZGVjaW4tLT48ZyBpZD0iZWxlbV9NZWRlY2luIj48ZWxsaXBzZSBjeD0iMTIzOCIgY3k9IjE0IiBmaWxsPSIjRjFGMUYxIiByeD0iOCIgcnk9IjgiIHN0eWxlPSJzdHJva2U6IzE4MTgxODtzdHJva2Utd2lkdGg6MC41OyIvPjxwYXRoIGQ9Ik0xMjM4LDIyIEwxMjM4LDQ5IE0xMjI1LDMwIEwxMjUxLDMwIE0xMjM4LDQ5IEwxMjI1LDY0IE0xMjM4LDQ5IEwxMjUxLDY0ICIgZmlsbD0ibm9uZSIgc3R5bGU9InN0cm9rZTojMTgxODE4O3N0cm9rZS13aWR0aDowLjU7Ii8+PHRleHQgZmlsbD0iIzAwMDAwMCIgZm9udC1mYW1pbHk9InNhbnMtc2VyaWYiIGZvbnQtc2l6ZT0iMTQiIGxlbmd0aEFkanVzdD0ic3BhY2luZyIgdGV4dExlbmd0aD0iNDkiIHg9IjEyMTMuNSIgeT0iNzguNzM0NCI+TWVkZWNpbjwvdGV4dD48L2c+PCEtLWVudGl0eSBBZG1pbmlzdHJhdGV1ci0tPjxnIGlkPSJlbGVtX0FkbWluaXN0cmF0ZXVyIj48ZWxsaXBzZSBjeD0iMTY0MyIgY3k9IjE0IiBmaWxsPSIjRjFGMUYxIiByeD0iOCIgcnk9IjgiIHN0eWxlPSJzdHJva2U6IzE4MTgxODtzdHJva2Utd2lkdGg6MC41OyIvPjxwYXRoIGQ9Ik0xNjQzLDIyIEwxNjQzLDQ5IE0xNjMwLDMwIEwxNjU2LDMwIE0xNjQzLDQ5IEwxNjMwLDY0IE0xNjQzLDQ5IEwxNjU2LDY0ICIgZmlsbD0ibm9uZSIgc3R5bGU9InN0cm9rZTojMTgxODE4O3N0cm9rZS13aWR0aDowLjU7Ii8+PHRleHQgZmlsbD0iIzAwMDAwMCIgZm9udC1mYW1pbHk9InNhbnMtc2VyaWYiIGZvbnQtc2l6ZT0iMTQiIGxlbmd0aEFkanVzdD0ic3BhY2luZyIgdGV4dExlbmd0aD0iOTkiIHg9IjE1OTMuNSIgeT0iNzguNzM0NCI+QWRtaW5pc3RyYXRldXI8L3RleHQ+PC9nPjwhLS1saW5rIFBhdGllbnQgdG8gVUMxLS0+PGcgaWQ9ImxpbmtfUGF0aWVudF9VQzEiPjxwYXRoIGQ9Ik02MTIuMDcsODAuNTQgQzYyOS4xNCwxMDYuNDQgNjQ3Ljc1ODQsMTM0LjcxMDEgNjU5Ljc5ODQsMTUyLjk4MDEgIiBmaWxsPSJub25lIiBpZD0iUGF0aWVudC10by1VQzEiIHN0eWxlPSJzdHJva2U6IzE4MTgxODtzdHJva2Utd2lkdGg6MS4wOyIvPjxwb2x5Z29uIGZpbGw9IiMxODE4MTgiIHBvaW50cz0iNjYzLjEsMTU3Ljk5LDY2MS40ODc2LDE0OC4yNzQsNjYwLjM0ODcsMTUzLjgxNSw2NTQuODA3NywxNTIuNjc2MSw2NjMuMSwxNTcuOTkiIHN0eWxlPSJzdHJva2U6IzE4MTgxODtzdHJva2Utd2lkdGg6MS4wOyIvPjwvZz48IS0tbGluayBQYXRpZW50IHRvIFVDMi0tPjxnIGlkPSJsaW5rX1BhdGllbnRfVUMyIj48cGF0aCBkPSJNNjEyLjYxLDQ0LjY2IEM3MDAuMTYsNDcuMzUgOTk1Ljc0LDU5LjI3IDEwODAsOTkuNSBDMTEwOC40MywxMTMuMDcgMTEyOC45MzMyLDEzNy40Mzg3IDExNDEuMDQzMiwxNTQuMTc4NyAiIGZpbGw9Im5vbmUiIGlkPSJQYXRpZW50LXRvLVVDMiIgc3R5bGU9InN0cm9rZTojMTgxODE4O3N0cm9rZS13aWR0aDoxLjA7Ii8+PHBvbHlnb24gZmlsbD0iIzE4MTgxOCIgcG9pbnRzPSIxMTQ0LjU2LDE1OS4wNCwxMTQyLjUyNTcsMTQ5LjQwMzUsMTE0MS42Mjk0LDE1NC45ODg5LDExMzYuMDQ0LDE1NC4wOTI1LDExNDQuNTYsMTU5LjA0IiBzdHlsZT0ic3Ryb2tlOiMxODE4MTg7c3Ryb2tlLXdpZHRoOjEuMDsiLz48L2c+PCEtLWxpbmsgUGF0aWVudCB0byBVQzMtLT48ZyBpZD0ibGlua19QYXRpZW50X1VDMyI+PHBhdGggZD0iTTU2My4zMSw0OS4yOSBDNTI4LjU3LDU3LjI5IDQ2My44MSw3NC4yNyA0MTMsOTkuNSBDMzgzLjEsMTE0LjM1IDM1Ni45Mjg2LDEzMy42MjEyIDMzNy4xMDg2LDE0OS42MjEyICIgZmlsbD0ibm9uZSIgaWQ9IlBhdGllbnQtdG8tVUMzIiBzdHlsZT0ic3Ryb2tlOiMxODE4MTg7c3Ryb2tlLXdpZHRoOjEuMDsiLz48cG9seWdvbiBmaWxsPSIjMTgxODE4IiBwb2ludHM9IjMzMi40NCwxNTMuMzksMzQxLjk1NTUsMTUwLjg0OTIsMzM2LjMzMDUsMTUwLjI0OTMsMzM2LjkzMDQsMTQ0LjYyNDQsMzMyLjQ0LDE1My4zOSIgc3R5bGU9InN0cm9rZTojMTgxODE4O3N0cm9rZS13aWR0aDoxLjA7Ii8+PC9nPjwhLS1saW5rIFBhdGllbnQgdG8gVUM0LS0+PGcgaWQ9ImxpbmtfUGF0aWVudF9VQzQiPjxwYXRoIGQ9Ik02MTIuNTQsNTEuNjMgQzY0NC42NCw2MS43OCA3MDIuNTIsODAuNjUgNzUxLDk5LjUgQzc4NS40OSwxMTIuOTEgODE3Ljg4MDMsMTI2Ljk0MzcgODQ4LjUzMDMsMTQwLjc2MzcgIiBmaWxsPSJub25lIiBpZD0iUGF0aWVudC10by1VQzQiIHN0eWxlPSJzdHJva2U6IzE4MTgxODtzdHJva2Utd2lkdGg6MS4wOyIvPjxwb2x5Z29uIGZpbGw9IiMxODE4MTgiIHBvaW50cz0iODU0LDE0My4yMyw4NDcuNDM5NiwxMzUuODg0MSw4NDkuNDQxOSwxNDEuMTc0OCw4NDQuMTUxMywxNDMuMTc3MSw4NTQsMTQzLjIzIiBzdHlsZT0ic3Ryb2tlOiMxODE4MTg7c3Ryb2tlLXdpZHRoOjEuMDsiLz48L2c+PCEtLWxpbmsgUGF0aWVudCB0byBVQzUtLT48ZyBpZD0ibGlua19QYXRpZW50X1VDNSI+PHBhdGggZD0iTTU2My42NCw4MC41NCBDNTQ3LjE2LDEwNS4yNiA1MjkuNTE3LDEzMS43MTY5IDUxNy4wNTcsMTUwLjQxNjkgIiBmaWxsPSJub25lIiBpZD0iUGF0aWVudC10by1VQzUiIHN0eWxlPSJzdHJva2U6IzE4MTgxODtzdHJva2Utd2lkdGg6MS4wOyIvPjxwb2x5Z29uIGZpbGw9IiMxODE4MTgiIHBvaW50cz0iNTEzLjczLDE1NS40MSw1MjIuMDQ5MiwxNTAuMTM4Myw1MTYuNTAyNSwxNTEuMjQ5MSw1MTUuMzkxNywxNDUuNzAyMyw1MTMuNzMsMTU1LjQxIiBzdHlsZT0ic3Ryb2tlOiMxODE4MTg7c3Ryb2tlLXdpZHRoOjEuMDsiLz48L2c+PCEtLWxpbmsgUGF0aWVudCB0byBVQzYtLT48ZyBpZD0ibGlua19QYXRpZW50X1VDNiI+PHBhdGggZD0iTTU2My40OSw0My43MSBDNTAxLjY2LDQzLjc5IDMzNS4yOSw0OS4wNSAyMDksOTkuNSBDMTc3LjIsMTEyLjIgMTUwLjMyNjcsMTMyLjcxMTkgMTMwLjk0NjcsMTQ5LjU3MTkgIiBmaWxsPSJub25lIiBpZD0iUGF0aWVudC10by1VQzYiIHN0eWxlPSJzdHJva2U6IzE4MTgxODtzdHJva2Utd2lkdGg6MS4wOyIvPjxwb2x5Z29uIGZpbGw9IiMxODE4MTgiIHBvaW50cz0iMTI2LjQyLDE1My41MSwxMzUuODM1NSwxNTAuNjIwNiwxMzAuMTkyMywxNTAuMjI4MiwxMzAuNTg0NywxNDQuNTg1LDEyNi40MiwxNTMuNTEiIHN0eWxlPSJzdHJva2U6IzE4MTgxODtzdHJva2Utd2lkdGg6MS4wOyIvPjwvZz48IS0tbGluayBNZWRlY2luIHRvIFVDMi0tPjxnIGlkPSJsaW5rX01lZGVjaW5fVUMyIj48cGF0aCBkPSJNMTIxMy42NCw4MC41NCBDMTE5Ni4wOCwxMDYuODggMTE3Ni43NTk1LDEzNS44Njg1IDExNjQuNzE5NSwxNTMuOTE4NSAiIGZpbGw9Im5vbmUiIGlkPSJNZWRlY2luLXRvLVVDMiIgc3R5bGU9InN0cm9rZTojMTgxODE4O3N0cm9rZS13aWR0aDoxLjA7Ii8+PHBvbHlnb24gZmlsbD0iIzE4MTgxOCIgcG9pbnRzPSIxMTYxLjM5LDE1OC45MSwxMTY5LjcxMTgsMTUzLjY0MjUsMTE2NC4xNjQ2LDE1NC43NTA1LDExNjMuMDU2NiwxNDkuMjAzMiwxMTYxLjM5LDE1OC45MSIgc3R5bGU9InN0cm9rZTojMTgxODE4O3N0cm9rZS13aWR0aDoxLjA7Ii8+PC9nPjwhLS1saW5rIE1lZGVjaW4gdG8gVUM0LS0+PGcgaWQ9ImxpbmtfTWVkZWNpbl9VQzQiPjxwYXRoIGQ9Ik0xMjEzLjQzLDUyIEMxMTgyLjE5LDYyLjMzIDExMjYuNjcsODEuMTUgMTA4MCw5OS41IEMxMDQ1LjM5LDExMy4xMSAxMDEyLjc3ODMsMTI3LjE3MyA5ODEuOTI4MywxNDAuOTUzICIgZmlsbD0ibm9uZSIgaWQ9Ik1lZGVjaW4tdG8tVUM0IiBzdHlsZT0ic3Ryb2tlOiMxODE4MTg7c3Ryb2tlLXdpZHRoOjEuMDsiLz48cG9seWdvbiBmaWxsPSIjMTgxODE4IiBwb2ludHM9Ijk3Ni40NSwxNDMuNCw5ODYuMjk4OCwxNDMuMzgxNyw5ODEuMDE1MywxNDEuMzYwOCw5ODMuMDM2MSwxMzYuMDc3Miw5NzYuNDUsMTQzLjQiIHN0eWxlPSJzdHJva2U6IzE4MTgxODtzdHJva2Utd2lkdGg6MS4wOyIvPjwvZz48IS0tbGluayBNZWRlY2luIHRvIFVDOC0tPjxnIGlkPSJsaW5rX01lZGVjaW5fVUM4Ij48cGF0aCBkPSJNMTI2Mi4zNiw4MC41NCBDMTI3OC41NSwxMDQuODIgMTI5NS43MzA2LDEzMC41OTg1IDEzMDguMjcwNiwxNDkuMzk4NSAiIGZpbGw9Im5vbmUiIGlkPSJNZWRlY2luLXRvLVVDOCIgc3R5bGU9InN0cm9rZTojMTgxODE4O3N0cm9rZS13aWR0aDoxLjA7Ii8+PHBvbHlnb24gZmlsbD0iIzE4MTgxOCIgcG9pbnRzPSIxMzExLjYsMTU0LjM5LDEzMDkuOTMzNSwxNDQuNjgzMiwxMzA4LjgyNTUsMTUwLjIzMDQsMTMwMy4yNzgyLDE0OS4xMjI0LDEzMTEuNiwxNTQuMzkiIHN0eWxlPSJzdHJva2U6IzE4MTgxODtzdHJva2Utd2lkdGg6MS4wOyIvPjwvZz48IS0tbGluayBNZWRlY2luIHRvIFVDOS0tPjxnIGlkPSJsaW5rX01lZGVjaW5fVUM5Ij48cGF0aCBkPSJNMTI2Mi41Myw0OS4xNiBDMTI5OC4xMiw1Ny4xNyAxMzY1LjY0LDc0LjM0IDE0MTksOTkuNSBDMTQ0OS45NywxMTQuMTEgMTQ3Ny41MjM4LDEzMi45MzgzIDE0OTguODUzOCwxNDguODc4MyAiIGZpbGw9Im5vbmUiIGlkPSJNZWRlY2luLXRvLVVDOSIgc3R5bGU9InN0cm9rZTojMTgxODE4O3N0cm9rZS13aWR0aDoxLjA7Ii8+PHBvbHlnb24gZmlsbD0iIzE4MTgxOCIgcG9pbnRzPSIxNTAzLjY2LDE1Mi40NywxNDk4Ljg0NTIsMTQzLjg3ODMsMTQ5OS42NTQ4LDE0OS40NzY5LDE0OTQuMDU2MiwxNTAuMjg2NiwxNTAzLjY2LDE1Mi40NyIgc3R5bGU9InN0cm9rZTojMTgxODE4O3N0cm9rZS13aWR0aDoxLjA7Ii8+PC9nPjwhLS1saW5rIEFkbWluaXN0cmF0ZXVyIHRvIFVDMi0tPjxnIGlkPSJsaW5rX0FkbWluaXN0cmF0ZXVyX1VDMiI+PHBhdGggZD0iTTE1OTMuMTgsNDYuNzMgQzE0OTcuMjMsNTIuNjMgMTI5MC42Niw2OC41OCAxMjI3LDk5LjUgQzExOTguNDYsMTEzLjM2IDExNzcuNTg4MiwxMzcuNjUzNyAxMTY1LjIxODIsMTU0LjMwMzcgIiBmaWxsPSJub25lIiBpZD0iQWRtaW5pc3RyYXRldXItdG8tVUMyIiBzdHlsZT0ic3Ryb2tlOiMxODE4MTg7c3Ryb2tlLXdpZHRoOjEuMDsiLz48cG9seWdvbiBmaWxsPSIjMTgxODE4IiBwb2ludHM9IjExNjEuNjQsMTU5LjEyLDExNzAuMjE4MiwxNTQuMjgxMSwxMTY0LjYyMTgsMTU1LjEwNjQsMTE2My43OTY1LDE0OS41MTAxLDExNjEuNjQsMTU5LjEyIiBzdHlsZT0ic3Ryb2tlOiMxODE4MTg7c3Ryb2tlLXdpZHRoOjEuMDsiLz48L2c+PCEtLWxpbmsgQWRtaW5pc3RyYXRldXIgdG8gVUM3LS0+PGcgaWQ9ImxpbmtfQWRtaW5pc3RyYXRldXJfVUM3Ij48cGF0aCBkPSJNMTY5Mi43Nyw0OS44NSBDMTc0MS44Niw1Ni45NSAxODE4LjE3LDcxLjYxIDE4NzksOTkuNSBDMTkwOS43MiwxMTMuNTggMTkzNS45NDQsMTM0LjAxMSAxOTU0LjgzNCwxNTAuNDUxICIgZmlsbD0ibm9uZSIgaWQ9IkFkbWluaXN0cmF0ZXVyLXRvLVVDNyIgc3R5bGU9InN0cm9rZTojMTgxODE4O3N0cm9rZS13aWR0aDoxLjA7Ii8+PHBvbHlnb24gZmlsbD0iIzE4MTgxOCIgcG9pbnRzPSIxOTU5LjM2LDE1NC4zOSwxOTU1LjE5NywxNDUuNDY0MiwxOTU1LjU4ODMsMTUxLjEwNzUsMTk0OS45NDUsMTUxLjQ5ODksMTk1OS4zNiwxNTQuMzkiIHN0eWxlPSJzdHJva2U6IzE4MTgxODtzdHJva2Utd2lkdGg6MS4wOyIvPjwvZz48IS0tbGluayBBZG1pbmlzdHJhdGV1ciB0byBVQzgtLT48ZyBpZD0ibGlua19BZG1pbmlzdHJhdGV1cl9VQzgiPjxwYXRoIGQ9Ik0xNTkzLjQ2LDUwLjQ1IEMxNTQ2Ljc1LDU3Ljg2IDE0NzUuNjQsNzIuNjEgMTQxOSw5OS41IEMxMzg4Ljg5LDExMy43OSAxMzYzLjM4MjgsMTM0LjMzOTYgMTM0NS4xMzI4LDE1MC43Mzk2ICIgZmlsbD0ibm9uZSIgaWQ9IkFkbWluaXN0cmF0ZXVyLXRvLVVDOCIgc3R5bGU9InN0cm9rZTojMTgxODE4O3N0cm9rZS13aWR0aDoxLjA7Ii8+PHBvbHlnb24gZmlsbD0iIzE4MTgxOCIgcG9pbnRzPSIxMzQwLjY3LDE1NC43NSwxMzUwLjAzNzgsMTUxLjcwOTYsMTM0NC4zODksMTUxLjQwOCwxMzQ0LjY5MDYsMTQ1Ljc1OTIsMTM0MC42NywxNTQuNzUiIHN0eWxlPSJzdHJva2U6IzE4MTgxODtzdHJva2Utd2lkdGg6MS4wOyIvPjwvZz48IS0tbGluayBBZG1pbmlzdHJhdGV1ciB0byBVQzktLT48ZyBpZD0ibGlua19BZG1pbmlzdHJhdGV1cl9VQzkiPjxwYXRoIGQ9Ik0xNjEwLjA1LDgwLjU0IEMxNTg4Ljk0LDEwMy45NCAxNTY2LjQxODIsMTI4LjkwNDIgMTU0OS4zMzgyLDE0Ny44NDQyICIgZmlsbD0ibm9uZSIgaWQ9IkFkbWluaXN0cmF0ZXVyLXRvLVVDOSIgc3R5bGU9InN0cm9rZTojMTgxODE4O3N0cm9rZS13aWR0aDoxLjA7Ii8+PHBvbHlnb24gZmlsbD0iIzE4MTgxOCIgcG9pbnRzPSIxNTQ1LjMyLDE1Mi4zLDE1NTQuMzE3OCwxNDguMjk1MSwxNTQ4LjY2ODUsMTQ4LjU4NjgsMTU0OC4zNzY4LDE0Mi45Mzc1LDE1NDUuMzIsMTUyLjMiIHN0eWxlPSJzdHJva2U6IzE4MTgxODtzdHJva2Utd2lkdGg6MS4wOyIvPjwvZz48IS0tbGluayBBZG1pbmlzdHJhdGV1ciB0byBVQzEwLS0+PGcgaWQ9ImxpbmtfQWRtaW5pc3RyYXRldXJfVUMxMCI+PHBhdGggZD0iTTE2NzUuOTUsODAuNTQgQzE2OTYuMTMsMTAyLjkxIDE3MTcuMjUxNSwxMjYuMzI0NCAxNzM0LjM1MTUsMTQ1LjI4NDQgIiBmaWxsPSJub25lIiBpZD0iQWRtaW5pc3RyYXRldXItdG8tVUMxMCIgc3R5bGU9InN0cm9rZTojMTgxODE4O3N0cm9rZS13aWR0aDoxLjA7Ii8+PHBvbHlnb24gZmlsbD0iIzE4MTgxOCIgcG9pbnRzPSIxNzM4LjM3LDE0OS43NCwxNzM1LjMxMjcsMTQwLjM3NzcsMTczNS4wMjEzLDE0Ni4wMjcsMTcyOS4zNzE5LDE0NS43MzU2LDE3MzguMzcsMTQ5Ljc0IiBzdHlsZT0ic3Ryb2tlOiMxODE4MTg7c3Ryb2tlLXdpZHRoOjEuMDsiLz48L2c+PCEtLWxpbmsgQWRtaW5pc3RyYXRldXIgdG8gVUMxMS0tPjxnIGlkPSJsaW5rX0FkbWluaXN0cmF0ZXVyX1VDMTEiPjxwYXRoIGQ9Ik0xNjkyLjc3LDQ3LjA3IEMxNzkxLjQ3LDUzLjY5IDIwMDguNDEsNzEuMDYgMjA3Nyw5OS41IEMyMTA3LjkzLDExMi4zMiAyMTMzLjEzMjYsMTM0LjA1MjMgMjE1MC4zMjI2LDE1MS4wNDIzICIgZmlsbD0ibm9uZSIgaWQ9IkFkbWluaXN0cmF0ZXVyLXRvLVVDMTEiIHN0eWxlPSJzdHJva2U6IzE4MTgxODtzdHJva2Utd2lkdGg6MS4wOyIvPjxwb2x5Z29uIGZpbGw9IiMxODE4MTgiIHBvaW50cz0iMjE1NC41OSwxNTUuMjYsMjE1MS4wMDA3LDE0Ni4wODg1LDIxNTEuMDMzOCwxNTEuNzQ1MiwyMTQ1LjM3NzEsMTUxLjc3ODMsMjE1NC41OSwxNTUuMjYiIHN0eWxlPSJzdHJva2U6IzE4MTgxODtzdHJva2Utd2lkdGg6MS4wOyIvPjwvZz48IS0tU1JDPVtUUDlESmlDbTQ4TnRGaU1lLXFnYUpWeXNJNUtNWTRNYVJjM2xzYkNPb1JOM3M0TzhuODV3WmJ1Q2pvSDVKYThzcVBsdnZrYmJDYjg1bngySldUMDY4US1nSGVzQVJBa3MtYVlNVjYwUENCOEdaMmY4LXM4RzlmTlNheUswelZjYUlLYTN6TkNyV0l5MXdPYVViVkc5VWhIVUNKTTFkOXMwekYxSzVKYkdFTWxudXd5em96aXhIZ2lQdVZCMnAtY3hZeHU1dm1DVjdxcjBYalNLcnA2ekhHSUQ3akhsR3J1WVRCRGJGYml4SkdUQWVtc3gwdmFNTWtKR3JqZmU0WkRDaWlwMVhfRTk0blMzNlZCTmpOTldRWEdTNmd1N2R0T1dGZXdZY18tczRFSlVlOG5mMVIxdGhCbGJ0bXFZczNRNVIxaDdlVkNqMmw0akg3aVBDOXRVTl96U2hjU3pGVV9maWdTTkZScUtlWnNzY3M2a292dlV6X0g2WUZtLVJwd1p2VEx1VUpyVXRlb05xbVI3d3lLRl0tLT48L2c+PC9zdmc+;" vertex="1" parent="1">
            <mxGeometry x="-700" y="-310" width="2268" height="226" as="geometry" />
          </mxCell>
        </UserObject>
        <mxCell id="vHuXmMWagbqj6InK_sGG-13" value="&lt;span style=&quot;font-size: 18px;&quot;&gt;Modifier&amp;nbsp;&lt;/span&gt;&lt;div&gt;&lt;span style=&quot;font-size: 18px;&quot;&gt;&amp;nbsp;profil&lt;/span&gt;&lt;/div&gt;" style="text;html=1;align=center;verticalAlign=middle;whiteSpace=wrap;rounded=0;" vertex="1" parent="1">
          <mxGeometry x="56.25" y="1035" width="120" height="35" as="geometry" />
        </mxCell>
        <mxCell id="vHuXmMWagbqj6InK_sGG-14" value="" style="ellipse;whiteSpace=wrap;html=1;" vertex="1" parent="1">
          <mxGeometry x="35" y="1150" width="162.5" height="100" as="geometry" />
        </mxCell>
        <mxCell id="vHuXmMWagbqj6InK_sGG-15" value="&lt;span style=&quot;font-size: 18px;&quot;&gt;annuler rendez vous&lt;/span&gt;" style="text;html=1;align=center;verticalAlign=middle;whiteSpace=wrap;rounded=0;" vertex="1" parent="1">
          <mxGeometry x="56.25" y="1180" width="120" height="35" as="geometry" />
        </mxCell>
        <mxCell id="vHuXmMWagbqj6InK_sGG-16" value="" style="ellipse;whiteSpace=wrap;html=1;" vertex="1" parent="1">
          <mxGeometry x="35" y="1290" width="162.5" height="100" as="geometry" />
        </mxCell>
        <mxCell id="vHuXmMWagbqj6InK_sGG-17" value="&lt;span style=&quot;font-size: 18px;&quot;&gt;inscription&lt;/span&gt;" style="text;html=1;align=center;verticalAlign=middle;whiteSpace=wrap;rounded=0;" vertex="1" parent="1">
          <mxGeometry x="56.25" y="1322.5" width="120" height="35" as="geometry" />
        </mxCell>
        <mxCell id="vHuXmMWagbqj6InK_sGG-18" value="medcin" style="shape=umlActor;verticalLabelPosition=bottom;verticalAlign=top;html=1;outlineConnect=0;" vertex="1" parent="1">
          <mxGeometry x="-260" y="1670" width="110" height="140" as="geometry" />
        </mxCell>
        <mxCell id="vHuXmMWagbqj6InK_sGG-19" value="" style="ellipse;whiteSpace=wrap;html=1;" vertex="1" parent="1">
          <mxGeometry x="30" y="1590" width="162.5" height="100" as="geometry" />
        </mxCell>
        <mxCell id="vHuXmMWagbqj6InK_sGG-20" value="&lt;span style=&quot;color: rgba(0, 0, 0, 0); font-family: monospace; font-size: 0px; text-align: start; text-wrap-mode: nowrap;&quot;&gt;%3CmxGraphModel%3E%3Croot%3E%3CmxCell%20id%3D%220%22%2F%3E%3CmxCell%20id%3D%221%22%20parent%3D%220%22%2F%3E%3CmxCell%20id%3D%222%22%20value%3D%22%26lt%3Bspan%20style%3D%26quot%3Bfont-size%3A%2018px%3B%26quot%3B%26gt%3BConsulter%20historique%20des%20consultations%26lt%3B%2Fspan%26gt%3B%22%20style%3D%22text%3Bhtml%3D1%3Balign%3Dcenter%3BverticalAlign%3Dmiddle%3BwhiteSpace%3Dwrap%3Brounded%3D0%3B%22%20vertex%3D%221%22%20parent%3D%221%22%3E%3CmxGeometry%20x%3D%2251.25%22%20y%3D%22875%22%20width%3D%22120%22%20height%3D%2230%22%20as%3D%22geometry%22%2F%3E%3C%2FmxCell%3E%3C%2Froot%3E%3C%2FmxGraphModel%3E&lt;/span&gt;&lt;span style=&quot;color: rgba(0, 0, 0, 0); font-family: monospace; font-size: 0px; text-align: start; text-wrap-mode: nowrap;&quot;&gt;%3CmxGraphModel%3E%3Croot%3E%3CmxCell%20id%3D%220%22%2F%3E%3CmxCell%20id%3D%221%22%20parent%3D%220%22%2F%3E%3CmxCell%20id%3D%222%22%20value%3D%22%26lt%3Bspan%20style%3D%26quot%3Bfont-size%3A%2018px%3B%26quot%3B%26gt%3BConsulter%20historique%20des%20consultations%26lt%3B%2Fspan%26gt%3B%22%20style%3D%22text%3Bhtml%3D1%3Balign%3Dcenter%3BverticalAlign%3Dmiddle%3BwhiteSpace%3Dwrap%3Brounded%3D0%3B%22%20vertex%3D%221%22%20parent%3D%221%22%3E%3CmxGeometry%20x%3D%2251.25%22%20y%3D%22875%22%20width%3D%22120%22%20height%3D%2230%22%20as%3D%22geometry%22%2F%3E%3C%2FmxCell%3E%3C%2Froot%3E%3C%2FmxGraphModel%3E&lt;/span&gt;" style="ellipse;whiteSpace=wrap;html=1;" vertex="1" parent="1">
          <mxGeometry x="30" y="1770" width="162.5" height="100" as="geometry" />
        </mxCell>
        <mxCell id="vHuXmMWagbqj6InK_sGG-22" value="&lt;span style=&quot;font-size: 18px;&quot;&gt;Gerer les rendez vous&amp;nbsp;&lt;/span&gt;" style="text;html=1;align=center;verticalAlign=middle;whiteSpace=wrap;rounded=0;" vertex="1" parent="1">
          <mxGeometry x="56.25" y="1622.5" width="120" height="35" as="geometry" />
        </mxCell>
        <mxCell id="vHuXmMWagbqj6InK_sGG-24" value="&lt;span style=&quot;font-size: 18px;&quot;&gt;Consulter historique des consultations&lt;/span&gt;" style="text;html=1;align=center;verticalAlign=middle;whiteSpace=wrap;rounded=0;" vertex="1" parent="1">
          <mxGeometry x="51.25" y="1805" width="120" height="30" as="geometry" />
        </mxCell>
        <mxCell id="vHuXmMWagbqj6InK_sGG-25" value="" style="ellipse;whiteSpace=wrap;html=1;" vertex="1" parent="1">
          <mxGeometry x="450" y="1500" width="150" height="90" as="geometry" />
        </mxCell>
        <mxCell id="vHuXmMWagbqj6InK_sGG-27" value="" style="ellipse;whiteSpace=wrap;html=1;" vertex="1" parent="1">
          <mxGeometry x="450" y="1657.5" width="150" height="90" as="geometry" />
        </mxCell>
        <mxCell id="vHuXmMWagbqj6InK_sGG-28" value="&lt;span style=&quot;font-size: 18px;&quot;&gt;confirmer rendez vous&amp;nbsp;&lt;/span&gt;" style="text;html=1;align=center;verticalAlign=middle;whiteSpace=wrap;rounded=0;" vertex="1" parent="1">
          <mxGeometry x="465" y="1527.5" width="120" height="35" as="geometry" />
        </mxCell>
        <mxCell id="vHuXmMWagbqj6InK_sGG-29" value="&lt;span style=&quot;font-size: 18px;&quot;&gt;annuler rendez vous&amp;nbsp;&lt;/span&gt;" style="text;html=1;align=center;verticalAlign=middle;whiteSpace=wrap;rounded=0;" vertex="1" parent="1">
          <mxGeometry x="465" y="1685" width="120" height="35" as="geometry" />
        </mxCell>
        <mxCell id="vHuXmMWagbqj6InK_sGG-30" value="Administration" style="shape=umlActor;verticalLabelPosition=bottom;verticalAlign=top;html=1;outlineConnect=0;" vertex="1" parent="1">
          <mxGeometry x="-260" y="2130" width="110" height="140" as="geometry" />
        </mxCell>
        <mxCell id="vHuXmMWagbqj6InK_sGG-31" value="&lt;span style=&quot;color: rgba(0, 0, 0, 0); font-family: monospace; font-size: 0px; text-align: start; text-wrap-mode: nowrap;&quot;&gt;%3CmxGraphModel%3E%3Croot%3E%3CmxCell%20id%3D%220%22%2F%3E%3CmxCell%20id%3D%221%22%20parent%3D%220%22%2F%3E%3CmxCell%20id%3D%222%22%20value%3D%22%26lt%3Bspan%20style%3D%26quot%3Bfont-size%3A%2018px%3B%26quot%3B%26gt%3BConsulter%20historique%20des%20consultations%26lt%3B%2Fspan%26gt%3B%22%20style%3D%22text%3Bhtml%3D1%3Balign%3Dcenter%3BverticalAlign%3Dmiddle%3BwhiteSpace%3Dwrap%3Brounded%3D0%3B%22%20vertex%3D%221%22%20parent%3D%221%22%3E%3CmxGeometry%20x%3D%2251.25%22%20y%3D%22875%22%20width%3D%22120%22%20height%3D%2230%22%20as%3D%22geometry%22%2F%3E%3C%2FmxCell%3E%3C%2Froot%3E%3C%2FmxGraphModel%3E&lt;/span&gt;&lt;span style=&quot;color: rgba(0, 0, 0, 0); font-family: monospace; font-size: 0px; text-align: start; text-wrap-mode: nowrap;&quot;&gt;%3CmxGraphModel%3E%3Croot%3E%3CmxCell%20id%3D%220%22%2F%3E%3CmxCell%20id%3D%221%22%20parent%3D%220%22%2F%3E%3CmxCell%20id%3D%222%22%20value%3D%22%26lt%3Bspan%20style%3D%26quot%3Bfont-size%3A%2018px%3B%26quot%3B%26gt%3BConsulter%20historique%20des%20consultations%26lt%3B%2Fspan%26gt%3B%22%20style%3D%22text%3Bhtml%3D1%3Balign%3Dcenter%3BverticalAlign%3Dmiddle%3BwhiteSpace%3Dwrap%3Brounded%3D0%3B%22%20vertex%3D%221%22%20parent%3D%221%22%3E%3CmxGeometry%20x%3D%2251.25%22%20y%3D%22875%22%20width%3D%22120%22%20height%3D%2230%22%20as%3D%22geometry%22%2F%3E%3C%2FmxCell%3E%3C%2Froot%3E%3C%2FmxGraphModel%3E&lt;/span&gt;" style="ellipse;whiteSpace=wrap;html=1;" vertex="1" parent="1">
          <mxGeometry x="30" y="2005" width="162.5" height="100" as="geometry" />
        </mxCell>
        <mxCell id="vHuXmMWagbqj6InK_sGG-32" value="&lt;span style=&quot;font-size: 18px;&quot;&gt;Gerée les utilisateurs&lt;/span&gt;" style="text;html=1;align=center;verticalAlign=middle;whiteSpace=wrap;rounded=0;" vertex="1" parent="1">
          <mxGeometry x="51.25" y="2040" width="120" height="30" as="geometry" />
        </mxCell>
        <mxCell id="vHuXmMWagbqj6InK_sGG-33" value="&lt;span style=&quot;color: rgba(0, 0, 0, 0); font-family: monospace; font-size: 0px; text-align: start; text-wrap-mode: nowrap;&quot;&gt;%3CmxGraphModel%3E%3Croot%3E%3CmxCell%20id%3D%220%22%2F%3E%3CmxCell%20id%3D%221%22%20parent%3D%220%22%2F%3E%3CmxCell%20id%3D%222%22%20value%3D%22%26lt%3Bspan%20style%3D%26quot%3Bfont-size%3A%2018px%3B%26quot%3B%26gt%3BConsulter%20historique%20des%20consultations%26lt%3B%2Fspan%26gt%3B%22%20style%3D%22text%3Bhtml%3D1%3Balign%3Dcenter%3BverticalAlign%3Dmiddle%3BwhiteSpace%3Dwrap%3Brounded%3D0%3B%22%20vertex%3D%221%22%20parent%3D%221%22%3E%3CmxGeometry%20x%3D%2251.25%22%20y%3D%22875%22%20width%3D%22120%22%20height%3D%2230%22%20as%3D%22geometry%22%2F%3E%3C%2FmxCell%3E%3C%2Froot%3E%3C%2FmxGraphModel%3E&lt;/span&gt;&lt;span style=&quot;color: rgba(0, 0, 0, 0); font-family: monospace; font-size: 0px; text-align: start; text-wrap-mode: nowrap;&quot;&gt;%3CmxGraphModel%3E%3Croot%3E%3CmxCell%20id%3D%220%22%2F%3E%3CmxCell%20id%3D%221%22%20parent%3D%220%22%2F%3E%3CmxCell%20id%3D%222%22%20value%3D%22%26lt%3Bspan%20style%3D%26quot%3Bfont-size%3A%2018px%3B%26quot%3B%26gt%3BConsulter%20historique%20des%20consultations%26lt%3B%2Fspan%26gt%3B%22%20style%3D%22text%3Bhtml%3D1%3Balign%3Dcenter%3BverticalAlign%3Dmiddle%3BwhiteSpace%3Dwrap%3Brounded%3D0%3B%22%20vertex%3D%221%22%20parent%3D%221%22%3E%3CmxGeometry%20x%3D%2251.25%22%20y%3D%22875%22%20width%3D%22120%22%20height%3D%2230%22%20as%3D%22geometry%22%2F%3E%3C%2FmxCell%3E%3C%2Froot%3E%3C%2FmxGraphModel%3E&lt;/span&gt;" style="ellipse;whiteSpace=wrap;html=1;" vertex="1" parent="1">
          <mxGeometry x="30" y="2150" width="162.5" height="100" as="geometry" />
        </mxCell>
        <mxCell id="vHuXmMWagbqj6InK_sGG-34" value="&lt;span style=&quot;color: rgba(0, 0, 0, 0); font-family: monospace; font-size: 0px; text-align: start; text-wrap-mode: nowrap;&quot;&gt;%3CmxGraphModel%3E%3Croot%3E%3CmxCell%20id%3D%220%22%2F%3E%3CmxCell%20id%3D%221%22%20parent%3D%220%22%2F%3E%3CmxCell%20id%3D%222%22%20value%3D%22%26lt%3Bspan%20style%3D%26quot%3Bfont-size%3A%2018px%3B%26quot%3B%26gt%3BConsulter%20historique%20des%20consultations%26lt%3B%2Fspan%26gt%3B%22%20style%3D%22text%3Bhtml%3D1%3Balign%3Dcenter%3BverticalAlign%3Dmiddle%3BwhiteSpace%3Dwrap%3Brounded%3D0%3B%22%20vertex%3D%221%22%20parent%3D%221%22%3E%3CmxGeometry%20x%3D%2251.25%22%20y%3D%22875%22%20width%3D%22120%22%20height%3D%2230%22%20as%3D%22geometry%22%2F%3E%3C%2FmxCell%3E%3C%2Froot%3E%3C%2FmxGraphModel%3E&lt;/span&gt;&lt;span style=&quot;color: rgba(0, 0, 0, 0); font-family: monospace; font-size: 0px; text-align: start; text-wrap-mode: nowrap;&quot;&gt;%3CmxGraphModel%3E%3Croot%3E%3CmxCell%20id%3D%220%22%2F%3E%3CmxCell%20id%3D%221%22%20parent%3D%220%22%2F%3E%3CmxCell%20id%3D%222%22%20value%3D%22%26lt%3Bspan%20style%3D%26quot%3Bfont-size%3A%2018px%3B%26quot%3B%26gt%3BConsulter%20historique%20des%20consultations%26lt%3B%2Fspan%26gt%3B%22%20style%3D%22text%3Bhtml%3D1%3Balign%3Dcenter%3BverticalAlign%3Dmiddle%3BwhiteSpace%3Dwrap%3Brounded%3D0%3B%22%20vertex%3D%221%22%20parent%3D%221%22%3E%3CmxGeometry%20x%3D%2251.25%22%20y%3D%22875%22%20width%3D%22120%22%20height%3D%2230%22%20as%3D%22geometry%22%2F%3E%3C%2FmxCell%3E%3C%2Froot%3E%3C%2FmxGraphModel%3E&lt;/span&gt;" style="ellipse;whiteSpace=wrap;html=1;" vertex="1" parent="1">
          <mxGeometry x="30" y="2290" width="162.5" height="100" as="geometry" />
        </mxCell>
        <mxCell id="vHuXmMWagbqj6InK_sGG-35" value="&lt;span style=&quot;color: rgba(0, 0, 0, 0); font-family: monospace; font-size: 0px; text-align: start; text-wrap-mode: nowrap;&quot;&gt;%3CmxGraphModel%3E%3Croot%3E%3CmxCell%20id%3D%220%22%2F%3E%3CmxCell%20id%3D%221%22%20parent%3D%220%22%2F%3E%3CmxCell%20id%3D%222%22%20value%3D%22%26lt%3Bspan%20style%3D%26quot%3Bfont-size%3A%2018px%3B%26quot%3B%26gt%3BConsulter%20historique%20des%20consultations%26lt%3B%2Fspan%26gt%3B%22%20style%3D%22text%3Bhtml%3D1%3Balign%3Dcenter%3BverticalAlign%3Dmiddle%3BwhiteSpace%3Dwrap%3Brounded%3D0%3B%22%20vertex%3D%221%22%20parent%3D%221%22%3E%3CmxGeometry%20x%3D%2251.25%22%20y%3D%22875%22%20width%3D%22120%22%20height%3D%2230%22%20as%3D%22geometry%22%2F%3E%3C%2FmxCell%3E%3C%2Froot%3E%3C%2FmxGraphModel%3E&lt;/span&gt;&lt;span style=&quot;color: rgba(0, 0, 0, 0); font-family: monospace; font-size: 0px; text-align: start; text-wrap-mode: nowrap;&quot;&gt;%3CmxGraphModel%3E%3Croot%3E%3CmxCell%20id%3D%220%22%2F%3E%3CmxCell%20id%3D%221%22%20parent%3D%220%22%2F%3E%3CmxCell%20id%3D%222%22%20value%3D%22%26lt%3Bspan%20style%3D%26quot%3Bfont-size%3A%2018px%3B%26quot%3B%26gt%3BConsulter%20historique%20des%20consultations%26lt%3B%2Fspan%26gt%3B%22%20style%3D%22text%3Bhtml%3D1%3Balign%3Dcenter%3BverticalAlign%3Dmiddle%3BwhiteSpace%3Dwrap%3Brounded%3D0%3B%22%20vertex%3D%221%22%20parent%3D%221%22%3E%3CmxGeometry%20x%3D%2251.25%22%20y%3D%22875%22%20width%3D%22120%22%20height%3D%2230%22%20as%3D%22geometry%22%2F%3E%3C%2FmxCell%3E%3C%2Froot%3E%3C%2FmxGraphModel%3E&lt;/span&gt;" style="ellipse;whiteSpace=wrap;html=1;" vertex="1" parent="1">
          <mxGeometry x="450" y="1910" width="130" height="80" as="geometry" />
        </mxCell>
        <mxCell id="vHuXmMWagbqj6InK_sGG-36" value="&lt;span style=&quot;font-size: 18px;&quot;&gt;Gerée les rendez vous&lt;/span&gt;" style="text;html=1;align=center;verticalAlign=middle;whiteSpace=wrap;rounded=0;" vertex="1" parent="1">
          <mxGeometry x="51.25" y="2185" width="120" height="30" as="geometry" />
        </mxCell>
        <mxCell id="vHuXmMWagbqj6InK_sGG-37" value="&lt;span style=&quot;font-size: 18px;&quot;&gt;consulter les statistics&lt;/span&gt;" style="text;html=1;align=center;verticalAlign=middle;whiteSpace=wrap;rounded=0;" vertex="1" parent="1">
          <mxGeometry x="51.25" y="2325" width="120" height="30" as="geometry" />
        </mxCell>
        <mxCell id="vHuXmMWagbqj6InK_sGG-38" value="&lt;span style=&quot;color: rgba(0, 0, 0, 0); font-family: monospace; font-size: 0px; text-align: start; text-wrap-mode: nowrap;&quot;&gt;%3CmxGraphModel%3E%3Croot%3E%3CmxCell%20id%3D%220%22%2F%3E%3CmxCell%20id%3D%221%22%20parent%3D%220%22%2F%3E%3CmxCell%20id%3D%222%22%20value%3D%22%26lt%3Bspan%20style%3D%26quot%3Bfont-size%3A%2018px%3B%26quot%3B%26gt%3BConsulter%20historique%20des%20consultations%26lt%3B%2Fspan%26gt%3B%22%20style%3D%22text%3Bhtml%3D1%3Balign%3Dcenter%3BverticalAlign%3Dmiddle%3BwhiteSpace%3Dwrap%3Brounded%3D0%3B%22%20vertex%3D%221%22%20parent%3D%221%22%3E%3CmxGeometry%20x%3D%2251.25%22%20y%3D%22875%22%20width%3D%22120%22%20height%3D%2230%22%20as%3D%22geometry%22%2F%3E%3C%2FmxCell%3E%3C%2Froot%3E%3C%2FmxGraphModel%3E&lt;/span&gt;&lt;span style=&quot;color: rgba(0, 0, 0, 0); font-family: monospace; font-size: 0px; text-align: start; text-wrap-mode: nowrap;&quot;&gt;%3CmxGraphModel%3E%3Croot%3E%3CmxCell%20id%3D%220%22%2F%3E%3CmxCell%20id%3D%221%22%20parent%3D%220%22%2F%3E%3CmxCell%20id%3D%222%22%20value%3D%22%26lt%3Bspan%20style%3D%26quot%3Bfont-size%3A%2018px%3B%26quot%3B%26gt%3BConsulter%20historique%20des%20consultations%26lt%3B%2Fspan%26gt%3B%22%20style%3D%22text%3Bhtml%3D1%3Balign%3Dcenter%3BverticalAlign%3Dmiddle%3BwhiteSpace%3Dwrap%3Brounded%3D0%3B%22%20vertex%3D%221%22%20parent%3D%221%22%3E%3CmxGeometry%20x%3D%2251.25%22%20y%3D%22875%22%20width%3D%22120%22%20height%3D%2230%22%20as%3D%22geometry%22%2F%3E%3C%2FmxCell%3E%3C%2Froot%3E%3C%2FmxGraphModel%3E&lt;/span&gt;" style="ellipse;whiteSpace=wrap;html=1;" vertex="1" parent="1">
          <mxGeometry x="450" y="2021.25" width="130" height="80" as="geometry" />
        </mxCell>
        <mxCell id="vHuXmMWagbqj6InK_sGG-39" value="&lt;span style=&quot;font-size: 14px;&quot;&gt;Activer utilisateur&lt;/span&gt;" style="text;html=1;align=center;verticalAlign=middle;whiteSpace=wrap;rounded=0;" vertex="1" parent="1">
          <mxGeometry x="475" y="1928.75" width="80" height="42.5" as="geometry" />
        </mxCell>
        <mxCell id="vHuXmMWagbqj6InK_sGG-40" value="&lt;span style=&quot;font-size: 14px;&quot;&gt;desactivier utilisateur&lt;/span&gt;" style="text;html=1;align=center;verticalAlign=middle;whiteSpace=wrap;rounded=0;" vertex="1" parent="1">
          <mxGeometry x="475" y="2040" width="80" height="42.5" as="geometry" />
        </mxCell>
        <mxCell id="vHuXmMWagbqj6InK_sGG-41" value="&lt;span style=&quot;color: rgba(0, 0, 0, 0); font-family: monospace; font-size: 0px; text-align: start; text-wrap-mode: nowrap;&quot;&gt;%3CmxGraphModel%3E%3Croot%3E%3CmxCell%20id%3D%220%22%2F%3E%3CmxCell%20id%3D%221%22%20parent%3D%220%22%2F%3E%3CmxCell%20id%3D%222%22%20value%3D%22%26lt%3Bspan%20style%3D%26quot%3Bfont-size%3A%2018px%3B%26quot%3B%26gt%3BConsulter%20historique%20des%20consultations%26lt%3B%2Fspan%26gt%3B%22%20style%3D%22text%3Bhtml%3D1%3Balign%3Dcenter%3BverticalAlign%3Dmiddle%3BwhiteSpace%3Dwrap%3Brounded%3D0%3B%22%20vertex%3D%221%22%20parent%3D%221%22%3E%3CmxGeometry%20x%3D%2251.25%22%20y%3D%22875%22%20width%3D%22120%22%20height%3D%2230%22%20as%3D%22geometry%22%2F%3E%3C%2FmxCell%3E%3C%2Froot%3E%3C%2FmxGraphModel%3E&lt;/span&gt;&lt;span style=&quot;color: rgba(0, 0, 0, 0); font-family: monospace; font-size: 0px; text-align: start; text-wrap-mode: nowrap;&quot;&gt;%3CmxGraphModel%3E%3Croot%3E%3CmxCell%20id%3D%220%22%2F%3E%3CmxCell%20id%3D%221%22%20parent%3D%220%22%2F%3E%3CmxCell%20id%3D%222%22%20value%3D%22%26lt%3Bspan%20style%3D%26quot%3Bfont-size%3A%2018px%3B%26quot%3B%26gt%3BConsulter%20historique%20des%20consultations%26lt%3B%2Fspan%26gt%3B%22%20style%3D%22text%3Bhtml%3D1%3Balign%3Dcenter%3BverticalAlign%3Dmiddle%3BwhiteSpace%3Dwrap%3Brounded%3D0%3B%22%20vertex%3D%221%22%20parent%3D%221%22%3E%3CmxGeometry%20x%3D%2251.25%22%20y%3D%22875%22%20width%3D%22120%22%20height%3D%2230%22%20as%3D%22geometry%22%2F%3E%3C%2FmxCell%3E%3C%2Froot%3E%3C%2FmxGraphModel%3E&lt;/span&gt;" style="ellipse;whiteSpace=wrap;html=1;" vertex="1" parent="1">
          <mxGeometry x="455" y="2135" width="130" height="80" as="geometry" />
        </mxCell>
        <mxCell id="vHuXmMWagbqj6InK_sGG-42" value="&lt;span style=&quot;color: rgba(0, 0, 0, 0); font-family: monospace; font-size: 0px; text-align: start; text-wrap-mode: nowrap;&quot;&gt;%3CmxGraphModel%3E%3Croot%3E%3CmxCell%20id%3D%220%22%2F%3E%3CmxCell%20id%3D%221%22%20parent%3D%220%22%2F%3E%3CmxCell%20id%3D%222%22%20value%3D%22%26lt%3Bspan%20style%3D%26quot%3Bfont-size%3A%2018px%3B%26quot%3B%26gt%3BConsulter%20historique%20des%20consultations%26lt%3B%2Fspan%26gt%3B%22%20style%3D%22text%3Bhtml%3D1%3Balign%3Dcenter%3BverticalAlign%3Dmiddle%3BwhiteSpace%3Dwrap%3Brounded%3D0%3B%22%20vertex%3D%221%22%20parent%3D%221%22%3E%3CmxGeometry%20x%3D%2251.25%22%20y%3D%22875%22%20width%3D%22120%22%20height%3D%2230%22%20as%3D%22geometry%22%2F%3E%3C%2FmxCell%3E%3C%2Froot%3E%3C%2FmxGraphModel%3E&lt;/span&gt;&lt;span style=&quot;color: rgba(0, 0, 0, 0); font-family: monospace; font-size: 0px; text-align: start; text-wrap-mode: nowrap;&quot;&gt;%3CmxGraphModel%3E%3Croot%3E%3CmxCell%20id%3D%220%22%2F%3E%3CmxCell%20id%3D%221%22%20parent%3D%220%22%2F%3E%3CmxCell%20id%3D%222%22%20value%3D%22%26lt%3Bspan%20style%3D%26quot%3Bfont-size%3A%2018px%3B%26quot%3B%26gt%3BConsulter%20historique%20des%20consultations%26lt%3B%2Fspan%26gt%3B%22%20style%3D%22text%3Bhtml%3D1%3Balign%3Dcenter%3BverticalAlign%3Dmiddle%3BwhiteSpace%3Dwrap%3Brounded%3D0%3B%22%20vertex%3D%221%22%20parent%3D%221%22%3E%3CmxGeometry%20x%3D%2251.25%22%20y%3D%22875%22%20width%3D%22120%22%20height%3D%2230%22%20as%3D%22geometry%22%2F%3E%3C%2FmxCell%3E%3C%2Froot%3E%3C%2FmxGraphModel%3E&lt;/span&gt;" style="ellipse;whiteSpace=wrap;html=1;" vertex="1" parent="1">
          <mxGeometry x="455" y="2245" width="130" height="80" as="geometry" />
        </mxCell>
        <mxCell id="vHuXmMWagbqj6InK_sGG-43" value="&lt;span style=&quot;font-size: 14px;&quot;&gt;confirmer un rendez vous&lt;/span&gt;" style="text;html=1;align=center;verticalAlign=middle;whiteSpace=wrap;rounded=0;" vertex="1" parent="1">
          <mxGeometry x="480" y="2153.75" width="80" height="42.5" as="geometry" />
        </mxCell>
        <mxCell id="vHuXmMWagbqj6InK_sGG-44" value="&lt;span style=&quot;font-size: 14px;&quot;&gt;Annuler un rendez vous&lt;/span&gt;" style="text;html=1;align=center;verticalAlign=middle;whiteSpace=wrap;rounded=0;" vertex="1" parent="1">
          <mxGeometry x="480" y="2263.75" width="80" height="42.5" as="geometry" />
        </mxCell>
        <mxCell id="vHuXmMWagbqj6InK_sGG-45" value="" style="ellipse;whiteSpace=wrap;html=1;" vertex="1" parent="1">
          <mxGeometry x="1260" y="1485" width="230" height="120" as="geometry" />
        </mxCell>
        <mxCell id="vHuXmMWagbqj6InK_sGG-46" value="&lt;font style=&quot;font-size: 24px;&quot;&gt;Authentification&lt;/font&gt;" style="text;html=1;align=center;verticalAlign=middle;whiteSpace=wrap;rounded=0;" vertex="1" parent="1">
          <mxGeometry x="1315" y="1527.5" width="125" height="35" as="geometry" />
        </mxCell>
        <mxCell id="vHuXmMWagbqj6InK_sGG-47" value="" style="endArrow=none;html=1;rounded=0;entryX=0.062;entryY=0.668;entryDx=0;entryDy=0;entryPerimeter=0;exitX=0.5;exitY=0.5;exitDx=0;exitDy=0;exitPerimeter=0;" edge="1" parent="1" source="vHuXmMWagbqj6InK_sGG-30" target="vHuXmMWagbqj6InK_sGG-31">
          <mxGeometry width="50" height="50" relative="1" as="geometry">
            <mxPoint x="-149.9975" y="2203.49" as="sourcePoint" />
            <mxPoint x="117.74000000000018" y="2101.25" as="targetPoint" />
            <Array as="points" />
          </mxGeometry>
        </mxCell>
        <mxCell id="vHuXmMWagbqj6InK_sGG-48" value="" style="endArrow=none;html=1;rounded=0;entryX=0;entryY=0.5;entryDx=0;entryDy=0;exitX=0.5;exitY=0.5;exitDx=0;exitDy=0;exitPerimeter=0;" edge="1" parent="1" source="vHuXmMWagbqj6InK_sGG-30" target="vHuXmMWagbqj6InK_sGG-33">
          <mxGeometry width="50" height="50" relative="1" as="geometry">
            <mxPoint x="-169.99750000000017" y="2215.0000000000005" as="sourcePoint" />
            <mxPoint x="102.29000000000019" y="2111.7099999999996" as="targetPoint" />
            <Array as="points" />
          </mxGeometry>
        </mxCell>
        <mxCell id="vHuXmMWagbqj6InK_sGG-51" value="" style="endArrow=none;html=1;rounded=0;exitX=0.5;exitY=0.5;exitDx=0;exitDy=0;exitPerimeter=0;" edge="1" parent="1" source="vHuXmMWagbqj6InK_sGG-18">
          <mxGeometry width="50" height="50" relative="1" as="geometry">
            <mxPoint x="-110" y="1962" as="sourcePoint" />
            <mxPoint x="30" y="1820" as="targetPoint" />
            <Array as="points" />
          </mxGeometry>
        </mxCell>
        <mxCell id="vHuXmMWagbqj6InK_sGG-52" value="" style="endArrow=none;html=1;rounded=0;entryX=0.041;entryY=0.396;entryDx=0;entryDy=0;exitX=0.5;exitY=0.5;exitDx=0;exitDy=0;exitPerimeter=0;entryPerimeter=0;" edge="1" parent="1" source="vHuXmMWagbqj6InK_sGG-30" target="vHuXmMWagbqj6InK_sGG-34">
          <mxGeometry width="50" height="50" relative="1" as="geometry">
            <mxPoint x="-200" y="2215" as="sourcePoint" />
            <mxPoint x="35" y="2215" as="targetPoint" />
            <Array as="points" />
          </mxGeometry>
        </mxCell>
        <mxCell id="vHuXmMWagbqj6InK_sGG-53" value="" style="endArrow=none;html=1;rounded=0;exitX=0.5;exitY=0.5;exitDx=0;exitDy=0;exitPerimeter=0;" edge="1" parent="1" source="vHuXmMWagbqj6InK_sGG-18" target="vHuXmMWagbqj6InK_sGG-19">
          <mxGeometry width="50" height="50" relative="1" as="geometry">
            <mxPoint x="-205" y="1739.17" as="sourcePoint" />
            <mxPoint x="30" y="1739.17" as="targetPoint" />
            <Array as="points" />
          </mxGeometry>
        </mxCell>
        <mxCell id="vHuXmMWagbqj6InK_sGG-54" value="" style="endArrow=none;html=1;rounded=0;exitX=0.5;exitY=0.5;exitDx=0;exitDy=0;exitPerimeter=0;entryX=0;entryY=0.5;entryDx=0;entryDy=0;" edge="1" parent="1" source="vHuXmMWagbqj6InK_sGG-6" target="vHuXmMWagbqj6InK_sGG-8">
          <mxGeometry width="50" height="50" relative="1" as="geometry">
            <mxPoint x="-187.75" y="1057" as="sourcePoint" />
            <mxPoint x="56.25" y="980" as="targetPoint" />
            <Array as="points" />
          </mxGeometry>
        </mxCell>
        <mxCell id="vHuXmMWagbqj6InK_sGG-55" value="" style="endArrow=none;html=1;rounded=0;exitX=0.5;exitY=0.5;exitDx=0;exitDy=0;exitPerimeter=0;entryX=0.058;entryY=0.329;entryDx=0;entryDy=0;entryPerimeter=0;" edge="1" parent="1" source="vHuXmMWagbqj6InK_sGG-6" target="vHuXmMWagbqj6InK_sGG-14">
          <mxGeometry width="50" height="50" relative="1" as="geometry">
            <mxPoint x="-195" y="1060" as="sourcePoint" />
            <mxPoint x="45" y="1060" as="targetPoint" />
            <Array as="points" />
          </mxGeometry>
        </mxCell>
        <mxCell id="vHuXmMWagbqj6InK_sGG-56" value="" style="endArrow=none;html=1;rounded=0;exitX=0.5;exitY=0.5;exitDx=0;exitDy=0;exitPerimeter=0;" edge="1" parent="1" source="vHuXmMWagbqj6InK_sGG-6" target="vHuXmMWagbqj6InK_sGG-16">
          <mxGeometry width="50" height="50" relative="1" as="geometry">
            <mxPoint x="-130" y="1180" as="sourcePoint" />
            <mxPoint x="119" y="1313" as="targetPoint" />
            <Array as="points" />
          </mxGeometry>
        </mxCell>
        <mxCell id="vHuXmMWagbqj6InK_sGG-57" value="" style="endArrow=none;html=1;rounded=0;exitX=0.5;exitY=0.5;exitDx=0;exitDy=0;exitPerimeter=0;entryX=0.055;entryY=0.696;entryDx=0;entryDy=0;entryPerimeter=0;" edge="1" parent="1" source="vHuXmMWagbqj6InK_sGG-6" target="vHuXmMWagbqj6InK_sGG-9">
          <mxGeometry width="50" height="50" relative="1" as="geometry">
            <mxPoint x="-150" y="1000" as="sourcePoint" />
            <mxPoint x="90" y="1000" as="targetPoint" />
            <Array as="points" />
          </mxGeometry>
        </mxCell>
        <mxCell id="vHuXmMWagbqj6InK_sGG-58" value="" style="endArrow=none;html=1;rounded=0;exitX=0.5;exitY=0.5;exitDx=0;exitDy=0;exitPerimeter=0;entryX=0.232;entryY=0.907;entryDx=0;entryDy=0;entryPerimeter=0;" edge="1" parent="1" source="vHuXmMWagbqj6InK_sGG-6" target="vHuXmMWagbqj6InK_sGG-7">
          <mxGeometry width="50" height="50" relative="1" as="geometry">
            <mxPoint x="-195" y="1060" as="sourcePoint" />
            <mxPoint x="49" y="920" as="targetPoint" />
            <Array as="points" />
          </mxGeometry>
        </mxCell>
        <mxCell id="vHuXmMWagbqj6InK_sGG-59" value="" style="endArrow=none;dashed=1;html=1;rounded=0;entryX=0.037;entryY=0.674;entryDx=0;entryDy=0;entryPerimeter=0;exitX=0.978;exitY=0.329;exitDx=0;exitDy=0;exitPerimeter=0;" edge="1" parent="1" source="vHuXmMWagbqj6InK_sGG-19" target="vHuXmMWagbqj6InK_sGG-25">
          <mxGeometry width="50" height="50" relative="1" as="geometry">
            <mxPoint x="180" y="1740" as="sourcePoint" />
            <mxPoint x="230" y="1690" as="targetPoint" />
          </mxGeometry>
        </mxCell>
        <mxCell id="vHuXmMWagbqj6InK_sGG-61" value="" style="endArrow=none;dashed=1;html=1;rounded=0;entryX=0;entryY=0.5;entryDx=0;entryDy=0;exitX=0.978;exitY=0.673;exitDx=0;exitDy=0;exitPerimeter=0;" edge="1" parent="1" source="vHuXmMWagbqj6InK_sGG-19" target="vHuXmMWagbqj6InK_sGG-27">
          <mxGeometry width="50" height="50" relative="1" as="geometry">
            <mxPoint x="213" y="1733.5" as="sourcePoint" />
            <mxPoint x="480" y="1671.5" as="targetPoint" />
          </mxGeometry>
        </mxCell>
        <mxCell id="vHuXmMWagbqj6InK_sGG-62" value="" style="endArrow=none;dashed=1;html=1;rounded=0;exitX=0;exitY=0.5;exitDx=0;exitDy=0;entryX=0.916;entryY=0.279;entryDx=0;entryDy=0;entryPerimeter=0;" edge="1" parent="1" source="vHuXmMWagbqj6InK_sGG-35" target="vHuXmMWagbqj6InK_sGG-31">
          <mxGeometry width="50" height="50" relative="1" as="geometry">
            <mxPoint x="690" y="1747.5" as="sourcePoint" />
            <mxPoint x="197.5" y="2048.4447236180904" as="targetPoint" />
          </mxGeometry>
        </mxCell>
        <mxCell id="vHuXmMWagbqj6InK_sGG-63" value="" style="endArrow=none;dashed=1;html=1;rounded=0;exitX=0;exitY=0.5;exitDx=0;exitDy=0;entryX=0.971;entryY=0.646;entryDx=0;entryDy=0;entryPerimeter=0;" edge="1" parent="1" source="vHuXmMWagbqj6InK_sGG-38" target="vHuXmMWagbqj6InK_sGG-31">
          <mxGeometry width="50" height="50" relative="1" as="geometry">
            <mxPoint x="460" y="1960" as="sourcePoint" />
            <mxPoint x="189" y="2043" as="targetPoint" />
          </mxGeometry>
        </mxCell>
        <mxCell id="vHuXmMWagbqj6InK_sGG-64" value="" style="endArrow=none;dashed=1;html=1;rounded=0;exitX=0.073;exitY=0.363;exitDx=0;exitDy=0;entryX=0.916;entryY=0.279;entryDx=0;entryDy=0;entryPerimeter=0;exitPerimeter=0;" edge="1" parent="1">
          <mxGeometry width="50" height="50" relative="1" as="geometry">
            <mxPoint x="462.99000000000024" y="2175.04" as="sourcePoint" />
            <mxPoint x="192.5" y="2199" as="targetPoint" />
          </mxGeometry>
        </mxCell>
        <mxCell id="vHuXmMWagbqj6InK_sGG-65" value="" style="endArrow=none;dashed=1;html=1;rounded=0;exitX=0.073;exitY=0.349;exitDx=0;exitDy=0;entryX=0.909;entryY=0.751;entryDx=0;entryDy=0;entryPerimeter=0;exitPerimeter=0;" edge="1" parent="1" source="vHuXmMWagbqj6InK_sGG-42" target="vHuXmMWagbqj6InK_sGG-33">
          <mxGeometry width="50" height="50" relative="1" as="geometry">
            <mxPoint x="465" y="2221" as="sourcePoint" />
            <mxPoint x="195" y="2245" as="targetPoint" />
          </mxGeometry>
        </mxCell>
        <mxCell id="vHuXmMWagbqj6InK_sGG-66" value="&amp;lt;&amp;lt;extend&amp;gt;&amp;gt;" style="text;html=1;align=center;verticalAlign=middle;whiteSpace=wrap;rounded=0;rotation=-15;" vertex="1" parent="1">
          <mxGeometry x="259.66" y="1971.25" width="80" height="30" as="geometry" />
        </mxCell>
        <mxCell id="vHuXmMWagbqj6InK_sGG-67" value="&amp;lt;&amp;lt;extend&amp;gt;&amp;gt;" style="text;html=1;align=center;verticalAlign=middle;whiteSpace=wrap;rounded=0;rotation=0;" vertex="1" parent="1">
          <mxGeometry x="280" y="2040" width="80" height="30" as="geometry" />
        </mxCell>
        <mxCell id="vHuXmMWagbqj6InK_sGG-68" value="&amp;lt;&amp;lt;extend&amp;gt;&amp;gt;" style="text;html=1;align=center;verticalAlign=middle;whiteSpace=wrap;rounded=0;rotation=0;" vertex="1" parent="1">
          <mxGeometry x="270" y="2160" width="80" height="30" as="geometry" />
        </mxCell>
        <mxCell id="vHuXmMWagbqj6InK_sGG-70" value="&amp;lt;&amp;lt;extend&amp;gt;&amp;gt;" style="text;html=1;align=center;verticalAlign=middle;whiteSpace=wrap;rounded=0;rotation=15;" vertex="1" parent="1">
          <mxGeometry x="310" y="2230" width="80" height="30" as="geometry" />
        </mxCell>
        <mxCell id="vHuXmMWagbqj6InK_sGG-71" value="&amp;lt;&amp;lt;extend&amp;gt;&amp;gt;" style="text;html=1;align=center;verticalAlign=middle;whiteSpace=wrap;rounded=0;rotation=15;" vertex="1" parent="1">
          <mxGeometry x="300" y="1655" width="80" height="30" as="geometry" />
        </mxCell>
        <mxCell id="vHuXmMWagbqj6InK_sGG-72" value="&amp;lt;&amp;lt;extend&amp;gt;&amp;gt;" style="text;html=1;align=center;verticalAlign=middle;whiteSpace=wrap;rounded=0;rotation=-15;" vertex="1" parent="1">
          <mxGeometry x="259.66" y="1569.5" width="80" height="30" as="geometry" />
        </mxCell>
        <mxCell id="vHuXmMWagbqj6InK_sGG-76" value="v" style="endArrow=none;dashed=1;html=1;rounded=0;exitX=1;exitY=0.5;exitDx=0;exitDy=0;edgeStyle=orthogonalEdgeStyle;entryX=1;entryY=0;entryDx=0;entryDy=0;" edge="1" parent="1" source="vHuXmMWagbqj6InK_sGG-7" target="vHuXmMWagbqj6InK_sGG-45">
          <mxGeometry width="50" height="50" relative="1" as="geometry">
            <mxPoint x="810" y="1140" as="sourcePoint" />
            <mxPoint x="860" y="1090" as="targetPoint" />
          </mxGeometry>
        </mxCell>
        <mxCell id="vHuXmMWagbqj6InK_sGG-77" value="v" style="endArrow=none;dashed=1;html=1;rounded=0;exitX=1;exitY=0.5;exitDx=0;exitDy=0;edgeStyle=orthogonalEdgeStyle;entryX=0.672;entryY=0.036;entryDx=0;entryDy=0;entryPerimeter=0;" edge="1" parent="1" target="vHuXmMWagbqj6InK_sGG-45">
          <mxGeometry width="50" height="50" relative="1" as="geometry">
            <mxPoint x="192.5" y="900" as="sourcePoint" />
            <mxPoint x="1374.5" y="1645" as="targetPoint" />
            <Array as="points">
              <mxPoint x="192" y="800" />
              <mxPoint x="1415" y="800" />
            </Array>
          </mxGeometry>
        </mxCell>
        <mxCell id="vHuXmMWagbqj6InK_sGG-79" value="v" style="endArrow=none;dashed=1;html=1;rounded=0;exitX=1;exitY=0.5;exitDx=0;exitDy=0;edgeStyle=orthogonalEdgeStyle;entryX=0.5;entryY=0;entryDx=0;entryDy=0;" edge="1" parent="1" target="vHuXmMWagbqj6InK_sGG-45">
          <mxGeometry width="50" height="50" relative="1" as="geometry">
            <mxPoint x="197.5" y="1050" as="sourcePoint" />
            <mxPoint x="1460.5" y="1813" as="targetPoint" />
            <Array as="points">
              <mxPoint x="197" y="940" />
              <mxPoint x="1375" y="940" />
            </Array>
          </mxGeometry>
        </mxCell>
        <mxCell id="vHuXmMWagbqj6InK_sGG-80" value="v" style="endArrow=none;dashed=1;html=1;rounded=0;exitX=1;exitY=0.5;exitDx=0;exitDy=0;edgeStyle=orthogonalEdgeStyle;entryX=0.346;entryY=0.064;entryDx=0;entryDy=0;entryPerimeter=0;" edge="1" parent="1" target="vHuXmMWagbqj6InK_sGG-45">
          <mxGeometry width="50" height="50" relative="1" as="geometry">
            <mxPoint x="197.5" y="1200" as="sourcePoint" />
            <mxPoint x="1460.5" y="1963" as="targetPoint" />
            <Array as="points">
              <mxPoint x="197" y="1090" />
              <mxPoint x="1339" y="1090" />
            </Array>
          </mxGeometry>
        </mxCell>
        <mxCell id="vHuXmMWagbqj6InK_sGG-81" value="" style="endArrow=none;dashed=1;html=1;rounded=0;exitX=1;exitY=0.5;exitDx=0;exitDy=0;edgeStyle=orthogonalEdgeStyle;entryX=0;entryY=0.5;entryDx=0;entryDy=0;" edge="1" parent="1" target="vHuXmMWagbqj6InK_sGG-45">
          <mxGeometry width="50" height="50" relative="1" as="geometry">
            <mxPoint x="192.5" y="1640" as="sourcePoint" />
            <mxPoint x="1455.5" y="2403" as="targetPoint" />
            <Array as="points">
              <mxPoint x="1260" y="1640" />
            </Array>
          </mxGeometry>
        </mxCell>
        <mxCell id="vHuXmMWagbqj6InK_sGG-82" value="" style="endArrow=none;dashed=1;html=1;rounded=0;exitX=1;exitY=0.5;exitDx=0;exitDy=0;edgeStyle=orthogonalEdgeStyle;entryX=0.306;entryY=0.975;entryDx=0;entryDy=0;entryPerimeter=0;" edge="1" parent="1" target="vHuXmMWagbqj6InK_sGG-45">
          <mxGeometry width="50" height="50" relative="1" as="geometry">
            <mxPoint x="192.5" y="1825" as="sourcePoint" />
            <mxPoint x="1260" y="1730" as="targetPoint" />
            <Array as="points">
              <mxPoint x="1330" y="1825" />
            </Array>
          </mxGeometry>
        </mxCell>
        <mxCell id="vHuXmMWagbqj6InK_sGG-83" value="" style="endArrow=none;dashed=1;html=1;rounded=0;exitX=1;exitY=0.5;exitDx=0;exitDy=0;edgeStyle=orthogonalEdgeStyle;entryX=0.5;entryY=1;entryDx=0;entryDy=0;" edge="1" parent="1" source="vHuXmMWagbqj6InK_sGG-31" target="vHuXmMWagbqj6InK_sGG-45">
          <mxGeometry width="50" height="50" relative="1" as="geometry">
            <mxPoint x="339.65999999999997" y="2005" as="sourcePoint" />
            <mxPoint x="1477.16" y="1782" as="targetPoint" />
            <Array as="points">
              <mxPoint x="193" y="2005" />
              <mxPoint x="1375" y="2005" />
            </Array>
          </mxGeometry>
        </mxCell>
        <mxCell id="vHuXmMWagbqj6InK_sGG-84" value="" style="endArrow=none;dashed=1;html=1;rounded=0;edgeStyle=orthogonalEdgeStyle;entryX=0.694;entryY=0.961;entryDx=0;entryDy=0;entryPerimeter=0;" edge="1" parent="1" target="vHuXmMWagbqj6InK_sGG-45">
          <mxGeometry width="50" height="50" relative="1" as="geometry">
            <mxPoint x="178" y="2220" as="sourcePoint" />
            <mxPoint x="1315" y="2005" as="targetPoint" />
            <Array as="points">
              <mxPoint x="178" y="2228" />
              <mxPoint x="1420" y="2228" />
            </Array>
          </mxGeometry>
        </mxCell>
        <mxCell id="vHuXmMWagbqj6InK_sGG-85" value="" style="endArrow=none;dashed=1;html=1;rounded=0;exitX=1;exitY=0.5;exitDx=0;exitDy=0;edgeStyle=orthogonalEdgeStyle;entryX=1;entryY=1;entryDx=0;entryDy=0;" edge="1" parent="1" target="vHuXmMWagbqj6InK_sGG-45">
          <mxGeometry width="50" height="50" relative="1" as="geometry">
            <mxPoint x="177.5" y="2373" as="sourcePoint" />
            <mxPoint x="1315" y="2150" as="targetPoint" />
            <Array as="points">
              <mxPoint x="1456" y="2373" />
            </Array>
          </mxGeometry>
        </mxCell>
        <mxCell id="vHuXmMWagbqj6InK_sGG-87" value="" style="endArrow=none;html=1;rounded=0;exitX=0.5;exitY=0.5;exitDx=0;exitDy=0;exitPerimeter=0;entryX=0;entryY=0.5;entryDx=0;entryDy=0;" edge="1" parent="1" source="vHuXmMWagbqj6InK_sGG-18" target="vHuXmMWagbqj6InK_sGG-16">
          <mxGeometry width="50" height="50" relative="1" as="geometry">
            <mxPoint x="-192.75" y="1670" as="sourcePoint" />
            <mxPoint x="51.25" y="1593" as="targetPoint" />
            <Array as="points" />
          </mxGeometry>
        </mxCell>
        <mxCell id="vHuXmMWagbqj6InK_sGG-88" value="&amp;lt;&amp;lt;include&lt;span style=&quot;color: rgba(0, 0, 0, 0); font-family: monospace; font-size: 0px; text-align: start; text-wrap-mode: nowrap;&quot;&gt;%3CmxGraphModel%3E%3Croot%3E%3CmxCell%20id%3D%220%22%2F%3E%3CmxCell%20id%3D%221%22%20parent%3D%220%22%2F%3E%3CmxCell%20id%3D%222%22%20value%3D%22%26amp%3Blt%3B%26amp%3Blt%3Bextend%26amp%3Bgt%3B%26amp%3Bgt%3B%22%20style%3D%22text%3Bhtml%3D1%3Balign%3Dcenter%3BverticalAlign%3Dmiddle%3BwhiteSpace%3Dwrap%3Brounded%3D0%3Brotation%3D-15%3B%22%20vertex%3D%221%22%20parent%3D%221%22%3E%3CmxGeometry%20x%3D%22259.66%22%20y%3D%221569.5%22%20width%3D%2280%22%20height%3D%2230%22%20as%3D%22geometry%22%2F%3E%3C%2FmxCell%3E%3C%2Froot%3E%3C%2FmxGraphModel%3E&lt;/span&gt;&amp;gt;&amp;gt;" style="text;html=1;align=center;verticalAlign=middle;whiteSpace=wrap;rounded=0;rotation=0;" vertex="1" parent="1">
          <mxGeometry x="455" y="710" width="80" height="30" as="geometry" />
        </mxCell>
        <mxCell id="vHuXmMWagbqj6InK_sGG-89" value="&amp;lt;&amp;lt;include&lt;span style=&quot;color: rgba(0, 0, 0, 0); font-family: monospace; font-size: 0px; text-align: start; text-wrap-mode: nowrap;&quot;&gt;%3CmxGraphModel%3E%3Croot%3E%3CmxCell%20id%3D%220%22%2F%3E%3CmxCell%20id%3D%221%22%20parent%3D%220%22%2F%3E%3CmxCell%20id%3D%222%22%20value%3D%22%26amp%3Blt%3B%26amp%3Blt%3Bextend%26amp%3Bgt%3B%26amp%3Bgt%3B%22%20style%3D%22text%3Bhtml%3D1%3Balign%3Dcenter%3BverticalAlign%3Dmiddle%3BwhiteSpace%3Dwrap%3Brounded%3D0%3Brotation%3D-15%3B%22%20vertex%3D%221%22%20parent%3D%221%22%3E%3CmxGeometry%20x%3D%22259.66%22%20y%3D%221569.5%22%20width%3D%2280%22%20height%3D%2230%22%20as%3D%22geometry%22%2F%3E%3C%2FmxCell%3E%3C%2Froot%3E%3C%2FmxGraphModel%3E&lt;/span&gt;&amp;gt;&amp;gt;" style="text;html=1;align=center;verticalAlign=middle;whiteSpace=wrap;rounded=0;rotation=0;" vertex="1" parent="1">
          <mxGeometry x="560" y="774" width="80" height="30" as="geometry" />
        </mxCell>
        <mxCell id="vHuXmMWagbqj6InK_sGG-90" value="&amp;lt;&amp;lt;include&lt;span style=&quot;color: rgba(0, 0, 0, 0); font-family: monospace; font-size: 0px; text-align: start; text-wrap-mode: nowrap;&quot;&gt;%3CmxGraphModel%3E%3Croot%3E%3CmxCell%20id%3D%220%22%2F%3E%3CmxCell%20id%3D%221%22%20parent%3D%220%22%2F%3E%3CmxCell%20id%3D%222%22%20value%3D%22%26amp%3Blt%3B%26amp%3Blt%3Bextend%26amp%3Bgt%3B%26amp%3Bgt%3B%22%20style%3D%22text%3Bhtml%3D1%3Balign%3Dcenter%3BverticalAlign%3Dmiddle%3BwhiteSpace%3Dwrap%3Brounded%3D0%3Brotation%3D-15%3B%22%20vertex%3D%221%22%20parent%3D%221%22%3E%3CmxGeometry%20x%3D%22259.66%22%20y%3D%221569.5%22%20width%3D%2280%22%20height%3D%2230%22%20as%3D%22geometry%22%2F%3E%3C%2FmxCell%3E%3C%2Froot%3E%3C%2FmxGraphModel%3E&lt;/span&gt;&amp;gt;&amp;gt;" style="text;html=1;align=center;verticalAlign=middle;whiteSpace=wrap;rounded=0;rotation=0;" vertex="1" parent="1">
          <mxGeometry x="580" y="913" width="80" height="30" as="geometry" />
        </mxCell>
        <mxCell id="vHuXmMWagbqj6InK_sGG-91" value="&amp;lt;&amp;lt;include&lt;span style=&quot;color: rgba(0, 0, 0, 0); font-family: monospace; font-size: 0px; text-align: start; text-wrap-mode: nowrap;&quot;&gt;%3CmxGraphModel%3E%3Croot%3E%3CmxCell%20id%3D%220%22%2F%3E%3CmxCell%20id%3D%221%22%20parent%3D%220%22%2F%3E%3CmxCell%20id%3D%222%22%20value%3D%22%26amp%3Blt%3B%26amp%3Blt%3Bextend%26amp%3Bgt%3B%26amp%3Bgt%3B%22%20style%3D%22text%3Bhtml%3D1%3Balign%3Dcenter%3BverticalAlign%3Dmiddle%3BwhiteSpace%3Dwrap%3Brounded%3D0%3Brotation%3D-15%3B%22%20vertex%3D%221%22%20parent%3D%221%22%3E%3CmxGeometry%20x%3D%22259.66%22%20y%3D%221569.5%22%20width%3D%2280%22%20height%3D%2230%22%20as%3D%22geometry%22%2F%3E%3C%2FmxCell%3E%3C%2Froot%3E%3C%2FmxGraphModel%3E&lt;/span&gt;&amp;gt;&amp;gt;" style="text;html=1;align=center;verticalAlign=middle;whiteSpace=wrap;rounded=0;rotation=0;" vertex="1" parent="1">
          <mxGeometry x="590" y="1062" width="80" height="30" as="geometry" />
        </mxCell>
        <mxCell id="vHuXmMWagbqj6InK_sGG-92" value="&amp;lt;&amp;lt;include&lt;span style=&quot;color: rgba(0, 0, 0, 0); font-family: monospace; font-size: 0px; text-align: start; text-wrap-mode: nowrap;&quot;&gt;%3CmxGraphModel%3E%3Croot%3E%3CmxCell%20id%3D%220%22%2F%3E%3CmxCell%20id%3D%221%22%20parent%3D%220%22%2F%3E%3CmxCell%20id%3D%222%22%20value%3D%22%26amp%3Blt%3B%26amp%3Blt%3Bextend%26amp%3Bgt%3B%26amp%3Bgt%3B%22%20style%3D%22text%3Bhtml%3D1%3Balign%3Dcenter%3BverticalAlign%3Dmiddle%3BwhiteSpace%3Dwrap%3Brounded%3D0%3Brotation%3D-15%3B%22%20vertex%3D%221%22%20parent%3D%221%22%3E%3CmxGeometry%20x%3D%22259.66%22%20y%3D%221569.5%22%20width%3D%2280%22%20height%3D%2230%22%20as%3D%22geometry%22%2F%3E%3C%2FmxCell%3E%3C%2Froot%3E%3C%2FmxGraphModel%3E&lt;/span&gt;&amp;gt;&amp;gt;" style="text;html=1;align=center;verticalAlign=middle;whiteSpace=wrap;rounded=0;rotation=0;" vertex="1" parent="1">
          <mxGeometry x="835" y="1612" width="80" height="30" as="geometry" />
        </mxCell>
        <mxCell id="vHuXmMWagbqj6InK_sGG-94" value="&amp;lt;&amp;lt;include&lt;span style=&quot;color: rgba(0, 0, 0, 0); font-family: monospace; font-size: 0px; text-align: start; text-wrap-mode: nowrap;&quot;&gt;%3CmxGraphModel%3E%3Croot%3E%3CmxCell%20id%3D%220%22%2F%3E%3CmxCell%20id%3D%221%22%20parent%3D%220%22%2F%3E%3CmxCell%20id%3D%222%22%20value%3D%22%26amp%3Blt%3B%26amp%3Blt%3Bextend%26amp%3Bgt%3B%26amp%3Bgt%3B%22%20style%3D%22text%3Bhtml%3D1%3Balign%3Dcenter%3BverticalAlign%3Dmiddle%3BwhiteSpace%3Dwrap%3Brounded%3D0%3Brotation%3D-15%3B%22%20vertex%3D%221%22%20parent%3D%221%22%3E%3CmxGeometry%20x%3D%22259.66%22%20y%3D%221569.5%22%20width%3D%2280%22%20height%3D%2230%22%20as%3D%22geometry%22%2F%3E%3C%2FmxCell%3E%3C%2Froot%3E%3C%2FmxGraphModel%3E&lt;/span&gt;&amp;gt;&amp;gt;" style="text;html=1;align=center;verticalAlign=middle;whiteSpace=wrap;rounded=0;rotation=0;" vertex="1" parent="1">
          <mxGeometry x="940" y="1799" width="80" height="30" as="geometry" />
        </mxCell>
        <mxCell id="vHuXmMWagbqj6InK_sGG-95" value="&amp;lt;&amp;lt;include&lt;span style=&quot;color: rgba(0, 0, 0, 0); font-family: monospace; font-size: 0px; text-align: start; text-wrap-mode: nowrap;&quot;&gt;%3CmxGraphModel%3E%3Croot%3E%3CmxCell%20id%3D%220%22%2F%3E%3CmxCell%20id%3D%221%22%20parent%3D%220%22%2F%3E%3CmxCell%20id%3D%222%22%20value%3D%22%26amp%3Blt%3B%26amp%3Blt%3Bextend%26amp%3Bgt%3B%26amp%3Bgt%3B%22%20style%3D%22text%3Bhtml%3D1%3Balign%3Dcenter%3BverticalAlign%3Dmiddle%3BwhiteSpace%3Dwrap%3Brounded%3D0%3Brotation%3D-15%3B%22%20vertex%3D%221%22%20parent%3D%221%22%3E%3CmxGeometry%20x%3D%22259.66%22%20y%3D%221569.5%22%20width%3D%2280%22%20height%3D%2230%22%20as%3D%22geometry%22%2F%3E%3C%2FmxCell%3E%3C%2Froot%3E%3C%2FmxGraphModel%3E&lt;/span&gt;&amp;gt;&amp;gt;" style="text;html=1;align=center;verticalAlign=middle;whiteSpace=wrap;rounded=0;rotation=0;" vertex="1" parent="1">
          <mxGeometry x="1000" y="1979" width="80" height="30" as="geometry" />
        </mxCell>
        <mxCell id="vHuXmMWagbqj6InK_sGG-98" value="&amp;lt;&amp;lt;include&lt;span style=&quot;color: rgba(0, 0, 0, 0); font-family: monospace; font-size: 0px; text-align: start; text-wrap-mode: nowrap;&quot;&gt;%3CmxGraphModel%3E%3Croot%3E%3CmxCell%20id%3D%220%22%2F%3E%3CmxCell%20id%3D%221%22%20parent%3D%220%22%2F%3E%3CmxCell%20id%3D%222%22%20value%3D%22%26amp%3Blt%3B%26amp%3Blt%3Bextend%26amp%3Bgt%3B%26amp%3Bgt%3B%22%20style%3D%22text%3Bhtml%3D1%3Balign%3Dcenter%3BverticalAlign%3Dmiddle%3BwhiteSpace%3Dwrap%3Brounded%3D0%3Brotation%3D-15%3B%22%20vertex%3D%221%22%20parent%3D%221%22%3E%3CmxGeometry%20x%3D%22259.66%22%20y%3D%221569.5%22%20width%3D%2280%22%20height%3D%2230%22%20as%3D%22geometry%22%2F%3E%3C%2FmxCell%3E%3C%2Froot%3E%3C%2FmxGraphModel%3E&lt;/span&gt;&amp;gt;&amp;gt;" style="text;html=1;align=center;verticalAlign=middle;whiteSpace=wrap;rounded=0;rotation=0;" vertex="1" parent="1">
          <mxGeometry x="990" y="2200" width="80" height="30" as="geometry" />
        </mxCell>
        <mxCell id="vHuXmMWagbqj6InK_sGG-99" value="&amp;lt;&amp;lt;include&lt;span style=&quot;color: rgba(0, 0, 0, 0); font-family: monospace; font-size: 0px; text-align: start; text-wrap-mode: nowrap;&quot;&gt;%3CmxGraphModel%3E%3Croot%3E%3CmxCell%20id%3D%220%22%2F%3E%3CmxCell%20id%3D%221%22%20parent%3D%220%22%2F%3E%3CmxCell%20id%3D%222%22%20value%3D%22%26amp%3Blt%3B%26amp%3Blt%3Bextend%26amp%3Bgt%3B%26amp%3Bgt%3B%22%20style%3D%22text%3Bhtml%3D1%3Balign%3Dcenter%3BverticalAlign%3Dmiddle%3BwhiteSpace%3Dwrap%3Brounded%3D0%3Brotation%3D-15%3B%22%20vertex%3D%221%22%20parent%3D%221%22%3E%3CmxGeometry%20x%3D%22259.66%22%20y%3D%221569.5%22%20width%3D%2280%22%20height%3D%2230%22%20as%3D%22geometry%22%2F%3E%3C%2FmxCell%3E%3C%2Froot%3E%3C%2FmxGraphModel%3E&lt;/span&gt;&amp;gt;&amp;gt;" style="text;html=1;align=center;verticalAlign=middle;whiteSpace=wrap;rounded=0;rotation=0;" vertex="1" parent="1">
          <mxGeometry x="990" y="2347" width="80" height="30" as="geometry" />
        </mxCell>
      </root>
    </mxGraphModel>
  </diagram>
</mxfile>
